<?xml version="1.0" encoding="UTF-8" standalone="no"?>
<!DOCTYPE svg PUBLIC "-//W3C//DTD SVG 1.1//EN" "http://www.w3.org/Graphics/SVG/1.1/DTD/svg11.dtd">
<svg width="100%" height="100%" viewBox="0 0 44 44" version="1.1" xmlns="http://www.w3.org/2000/svg" xmlns:xlink="http://www.w3.org/1999/xlink" xml:space="preserve" xmlns:serif="http://www.serif.com/" style="fill-rule:evenodd;clip-rule:evenodd;stroke-linejoin:round;stroke-miterlimit:2;">
    <g transform="matrix(1,0,0,1,-2,-2)">
        <g>
            <path d="M37,43C36.4,43 36,42.6 36,42L36,31C36,30.4 36.4,30 37,30C37.6,30 38,30.4 38,31L38,42C38,42.6 37.6,43 37,43Z" style="fill:rgb(31,180,183);fill-rule:nonzero;"/>
            <path d="M37,43.4L31.3,37.7C30.9,37.3 30.9,36.7 31.3,36.3C31.7,35.9 32.3,35.9 32.7,36.3L37,40.6L41.3,36.3C41.7,35.9 42.3,35.9 42.7,36.3C43.1,36.7 43.1,37.3 42.7,37.7L37,43.4Z" style="fill:rgb(31,180,183);fill-rule:nonzero;"/>
            <path d="M24,46C11.9,46 2,36.1 2,24C2,11.9 11.9,2 24,2C36.1,2 46,11.9 46,24C46,25.1 45.9,26.3 45.7,27.7C45.6,28.2 45.1,28.6 44.5,28.5C43.9,28.4 43.6,27.9 43.7,27.3C43.9,26.1 44,25 44,24C44,13 35,4 24,4C13,4 4,13 4,24C4,35 13,44 24,44C25,44 26.1,43.9 27.3,43.7C27.8,43.6 28.4,44 28.5,44.5C28.6,45 28.2,45.6 27.7,45.7C26.3,45.9 25.1,46 24,46Z" style="fill:rgb(31,180,183);fill-rule:nonzero;"/>
            <path d="M24,41.6C14.3,41.6 6.4,33.7 6.4,24C6.4,14.3 14.3,6.4 24,6.4C33.7,6.4 41.6,14.3 41.6,24C41.6,24.6 41.2,25 40.6,25C40,25 39.6,24.6 39.6,24C39.6,15.4 32.6,8.4 24,8.4C15.4,8.4 8.4,15.4 8.4,24C8.4,32.6 15.4,39.6 24,39.6C24.6,39.6 25,40 25,40.6C25,41.2 24.6,41.6 24,41.6Z" style="fill:rgb(31,180,183);fill-rule:nonzero;"/>
            <g>
                <path d="M25,25C24.4,25 24,24.6 24,24C24,23.4 24.4,23 25,23C26.7,23 28,21.7 28,20C28,18.3 26.7,17 25,17L20,17C19.4,17 19,16.6 19,16C19,15.4 19.4,15 20,15L25,15C27.8,15 30,17.2 30,20C30,22.8 27.8,25 25,25Z" style="fill:rgb(31,180,183);fill-rule:nonzero;"/>
                <path d="M25,33L20,33C19.4,33 19,32.6 19,32C19,31.4 19.4,31 20,31L25,31C26.7,31 28,29.7 28,28C28,26.3 26.7,25 25,25L20,25C19.4,25 19,24.6 19,24C19,23.4 19.4,23 20,23L25,23C27.8,23 30,25.2 30,28C30,30.8 27.8,33 25,33Z" style="fill:rgb(31,180,183);fill-rule:nonzero;"/>
                <path d="M21,36C20.4,36 20,35.6 20,35L20,13C20,12.4 20.4,12 21,12C21.6,12 22,12.4 22,13L22,35C22,35.6 21.6,36 21,36Z" style="fill:rgb(31,180,183);fill-rule:nonzero;"/>
                <path d="M25,16C24.4,16 24,15.6 24,15L24,13C24,12.4 24.4,12 25,12C25.6,12 26,12.4 26,13L26,15C26,15.6 25.6,16 25,16Z" style="fill:rgb(31,180,183);fill-rule:nonzero;"/>
                <path d="M25,36C24.4,36 24,35.6 24,35L24,33C24,32.4 24.4,32 25,32C25.6,32 26,32.4 26,33L26,35C26,35.6 25.6,36 25,36Z" style="fill:rgb(31,180,183);fill-rule:nonzero;"/>
            </g>
        </g>
    </g>
</svg>
