<?xml version="1.0" encoding="UTF-8" standalone="no"?>
<!DOCTYPE svg PUBLIC "-//W3C//DTD SVG 1.1//EN" "http://www.w3.org/Graphics/SVG/1.1/DTD/svg11.dtd">
<svg width="100%" height="100%" viewBox="0 0 23 21" version="1.1" xmlns="http://www.w3.org/2000/svg" xmlns:xlink="http://www.w3.org/1999/xlink" xml:space="preserve" xmlns:serif="http://www.serif.com/" style="fill-rule:evenodd;clip-rule:evenodd;stroke-linecap:round;stroke-linejoin:round;">
    <g transform="matrix(1,0,0,1,-0.551981,-1.89726)">
        <path d="M10.29,3.86L1.82,18C1.644,18.304 1.552,18.649 1.552,19C1.552,20.089 2.441,20.988 3.53,21L20.47,21C21.559,20.988 22.448,20.089 22.448,19C22.448,18.649 22.356,18.304 22.18,18L13.71,3.86C13.348,3.263 12.698,2.897 12,2.897C11.302,2.897 10.652,3.263 10.29,3.86Z" style="fill:none;fill-rule:nonzero;stroke:rgb(73,84,106);stroke-width:2px;"/>
        <path d="M12,9L12,13" style="fill:none;fill-rule:nonzero;stroke:rgb(73,84,106);stroke-width:2px;"/>
        <g transform="matrix(1,0,0,1,-1,0)">
            <circle cx="13" cy="17" r="1" style="fill:rgb(73,84,106);"/>
        </g>
    </g>
</svg>
