<?xml version="1.0" encoding="UTF-8" standalone="no"?>
<!DOCTYPE svg PUBLIC "-//W3C//DTD SVG 1.1//EN" "http://www.w3.org/Graphics/SVG/1.1/DTD/svg11.dtd">
<svg width="100%" height="100%" viewBox="0 0 46 41" version="1.1" xmlns="http://www.w3.org/2000/svg" xmlns:xlink="http://www.w3.org/1999/xlink" xml:space="preserve" xmlns:serif="http://www.serif.com/" style="fill-rule:evenodd;clip-rule:evenodd;stroke-linejoin:round;stroke-miterlimit:2;">
    <g transform="matrix(1,0,0,1,-1,-5)">
        <path d="M13,41C12.4,41 12,40.6 12,40L12,38.8C10.8,38.4 10,37.3 10,36L10,21C10,19.7 10.8,18.6 12,18.2L12,17C12,16.4 12.4,16 13,16C13.6,16 14,16.4 14,17L14,19C14,19.6 13.6,20 13,20C12.4,20 12,20.4 12,21L12,36C12,36.6 12.4,37 13,37C13.6,37 14,37.4 14,38L14,40C14,40.6 13.6,41 13,41Z" style="fill:rgb(31,180,183);fill-rule:nonzero;"/>
        <path d="M5,41C4.4,41 4,40.6 4,40L4,38C4,37.4 4.4,37 5,37C5.6,37 6,36.6 6,36L6,21C6,20.4 5.6,20 5,20C4.4,20 4,19.6 4,19L4,17C4,16.4 4.4,16 5,16C5.6,16 6,16.4 6,17L6,18.2C7.2,18.6 8,19.7 8,21L8,36C8,37.3 7.2,38.4 6,38.8L6,40C6,40.6 5.6,41 5,41Z" style="fill:rgb(31,180,183);fill-rule:nonzero;"/>
        <path d="M28,41C27.4,41 27,40.6 27,40L27,38.8C25.8,38.4 25,37.3 25,36L25,21C25,19.7 25.8,18.6 27,18.2L27,17C27,16.4 27.4,16 28,16C28.6,16 29,16.4 29,17L29,19C29,19.6 28.6,20 28,20C27.4,20 27,20.4 27,21L27,36C27,36.6 27.4,37 28,37C28.6,37 29,37.4 29,38L29,40C29,40.6 28.6,41 28,41Z" style="fill:rgb(31,180,183);fill-rule:nonzero;"/>
        <path d="M20,41C19.4,41 19,40.6 19,40L19,38C19,37.4 19.4,37 20,37C20.6,37 21,36.6 21,36L21,21C21,20.4 20.6,20 20,20C19.4,20 19,19.6 19,19L19,17C19,16.4 19.4,16 20,16C20.6,16 21,16.4 21,17L21,18.2C22.2,18.6 23,19.7 23,21L23,36C23,37.3 22.2,38.4 21,38.8L21,40C21,40.6 20.6,41 20,41Z" style="fill:rgb(31,180,183);fill-rule:nonzero;"/>
        <path d="M43,41C42.4,41 42,40.6 42,40L42,38.8C40.8,38.4 40,37.3 40,36L40,21C40,19.7 40.8,18.6 42,18.2L42,17C42,16.4 42.4,16 43,16C43.6,16 44,16.4 44,17L44,19C44,19.6 43.6,20 43,20C42.4,20 42,20.4 42,21L42,36C42,36.6 42.4,37 43,37C43.6,37 44,37.4 44,38L44,40C44,40.6 43.6,41 43,41Z" style="fill:rgb(31,180,183);fill-rule:nonzero;"/>
        <path d="M35,41C34.4,41 34,40.6 34,40L34,38C34,37.4 34.4,37 35,37C35.6,37 36,36.6 36,36L36,21C36,20.4 35.6,20 35,20C34.4,20 34,19.6 34,19L34,17C34,16.4 34.4,16 35,16C35.6,16 36,16.4 36,17L36,18.2C37.2,18.6 38,19.7 38,21L38,36C38,37.3 37.2,38.4 36,38.8L36,40C36,40.6 35.6,41 35,41Z" style="fill:rgb(31,180,183);fill-rule:nonzero;"/>
        <path d="M45,46C44.4,46 44,45.6 44,45L44,42L3,42L3,45C3,45.6 2.6,46 2,46C1.4,46 1,45.6 1,45L1,41C1,40.4 1.4,40 2,40L45,40C45.6,40 46,40.4 46,41L46,45C46,45.6 45.6,46 45,46Z" style="fill:rgb(31,180,183);fill-rule:nonzero;"/>
        <path d="M45,17L2,17C1.4,17 1,16.6 1,16L1,11C1,10.5 1.3,10.1 1.8,10L23.8,5L24.3,5L45.3,10C45.8,10.1 46.1,10.5 46.1,11L46.1,16C46,16.6 45.6,17 45,17ZM3,15L44,15L44,11.8L24,7L3,11.8L3,15Z" style="fill:rgb(31,180,183);fill-rule:nonzero;"/>
    </g>
</svg>
