<?xml version="1.0" encoding="UTF-8" standalone="no"?>
<!DOCTYPE svg PUBLIC "-//W3C//DTD SVG 1.1//EN" "http://www.w3.org/Graphics/SVG/1.1/DTD/svg11.dtd">
<svg width="100%" height="100%" viewBox="0 0 46 46" version="1.1" xmlns="http://www.w3.org/2000/svg" xmlns:xlink="http://www.w3.org/1999/xlink" xml:space="preserve" xmlns:serif="http://www.serif.com/" style="fill-rule:evenodd;clip-rule:evenodd;stroke-linejoin:round;stroke-miterlimit:2;">
    <g transform="matrix(1,0,0,1,-1,-1)">
        <path d="M44,47L4,47C2.3,47 1,45.7 1,44L1,4C1,2.3 2.3,1 4,1L44,1C45.7,1 47,2.3 47,4L47,44C47,45.7 45.7,47 44,47ZM4,3C3.4,3 3,3.4 3,4L3,44C3,44.6 3.4,45 4,45L44,45C44.6,45 45,44.6 45,44L45,4C45,3.4 44.6,3 44,3L4,3Z" style="fill:rgb(31,180,183);fill-rule:nonzero;"/>
        <path d="M6,7.5C5.2,7.5 4.5,6.8 4.5,6C4.5,5.2 5.2,4.5 6,4.5C6.8,4.5 7.5,5.2 7.5,6C7.5,6.8 6.8,7.5 6,7.5ZM6,5.5C5.7,5.5 5.5,5.7 5.5,6C5.5,6.3 5.7,6.5 6,6.5C6.3,6.5 6.5,6.3 6.5,6C6.5,5.7 6.3,5.5 6,5.5Z" style="fill:rgb(31,180,183);fill-rule:nonzero;"/>
        <path d="M10,7.5C9.2,7.5 8.5,6.8 8.5,6C8.5,5.2 9.2,4.5 10,4.5C10.8,4.5 11.5,5.2 11.5,6C11.5,6.8 10.8,7.5 10,7.5ZM10,5.5C9.7,5.5 9.5,5.7 9.5,6C9.5,6.3 9.7,6.5 10,6.5C10.3,6.5 10.5,6.3 10.5,6C10.5,5.7 10.3,5.5 10,5.5Z" style="fill:rgb(31,180,183);fill-rule:nonzero;"/>
        <path d="M14,7.5C13.2,7.5 12.5,6.8 12.5,6C12.5,5.2 13.2,4.5 14,4.5C14.8,4.5 15.5,5.2 15.5,6C15.5,6.8 14.8,7.5 14,7.5ZM14,5.5C13.7,5.5 13.5,5.7 13.5,6C13.5,6.3 13.7,6.5 14,6.5C14.3,6.5 14.5,6.3 14.5,6C14.5,5.7 14.3,5.5 14,5.5Z" style="fill:rgb(31,180,183);fill-rule:nonzero;"/>
        <rect x="2" y="9" width="44" height="2" style="fill:rgb(31,180,183);"/>
        <path d="M30,38L18,38C16.3,38 15,36.7 15,35L15,25L33,25L33,35C33,36.7 31.7,38 30,38ZM17,27L17,35C17,35.6 17.4,36 18,36L30,36C30.6,36 31,35.6 31,35L31,27L17,27Z" style="fill:rgb(31,180,183);fill-rule:nonzero;"/>
        <path d="M33,25L31,25C31,21.1 27.9,18 24,18C20.1,18 17,21.1 17,25L15,25C15,20 19,16 24,16C29,16 33,20 33,25Z" style="fill:rgb(31,180,183);fill-rule:nonzero;"/>
        <path d="M24,33C23.4,33 23,32.6 23,32L23,30C23,29.4 23.4,29 24,29C24.6,29 25,29.4 25,30L25,32C25,32.6 24.6,33 24,33Z" style="fill:rgb(31,180,183);fill-rule:nonzero;"/>
    </g>
</svg>
