<?xml version="1.0" encoding="UTF-8" standalone="no"?>
<!DOCTYPE svg PUBLIC "-//W3C//DTD SVG 1.1//EN" "http://www.w3.org/Graphics/SVG/1.1/DTD/svg11.dtd">
<svg width="100%" height="100%" viewBox="0 0 46 46" version="1.1" xmlns="http://www.w3.org/2000/svg" xmlns:xlink="http://www.w3.org/1999/xlink" xml:space="preserve" xmlns:serif="http://www.serif.com/" style="fill-rule:evenodd;clip-rule:evenodd;stroke-linejoin:round;stroke-miterlimit:2;">
    <g transform="matrix(1,0,0,1,-1,-1)">
        <path d="M26,37L4,37C2.3,37 1,35.7 1,34L1,4C1,2.3 2.3,1 4,1L34,1C35.7,1 37,2.3 37,4L37,26L35,26L35,4C35,3.4 34.6,3 34,3L4,3C3.4,3 3,3.4 3,4L3,34C3,34.6 3.4,35 4,35L26,35L26,37Z" style="fill:rgb(31,180,183);fill-rule:nonzero;"/>
        <path d="M6,7.5C5.2,7.5 4.5,6.8 4.5,6C4.5,5.2 5.2,4.5 6,4.5C6.8,4.5 7.5,5.2 7.5,6C7.5,6.8 6.8,7.5 6,7.5ZM6,5.5C5.7,5.5 5.5,5.7 5.5,6C5.5,6.3 5.7,6.5 6,6.5C6.3,6.5 6.5,6.3 6.5,6C6.5,5.7 6.3,5.5 6,5.5Z" style="fill:rgb(31,180,183);fill-rule:nonzero;"/>
        <path d="M10,7.5C9.2,7.5 8.5,6.8 8.5,6C8.5,5.2 9.2,4.5 10,4.5C10.8,4.5 11.5,5.2 11.5,6C11.5,6.8 10.8,7.5 10,7.5ZM10,5.5C9.7,5.5 9.5,5.7 9.5,6C9.5,6.3 9.7,6.5 10,6.5C10.3,6.5 10.5,6.3 10.5,6C10.5,5.7 10.3,5.5 10,5.5Z" style="fill:rgb(31,180,183);fill-rule:nonzero;"/>
        <path d="M14,7.5C13.2,7.5 12.5,6.8 12.5,6C12.5,5.2 13.2,4.5 14,4.5C14.8,4.5 15.5,5.2 15.5,6C15.5,6.8 14.8,7.5 14,7.5ZM14,5.5C13.7,5.5 13.5,5.7 13.5,6C13.5,6.3 13.7,6.5 14,6.5C14.3,6.5 14.5,6.3 14.5,6C14.5,5.7 14.3,5.5 14,5.5Z" style="fill:rgb(31,180,183);fill-rule:nonzero;"/>
        <rect x="2" y="9" width="34" height="2" style="fill:rgb(31,180,183);"/>
        <path d="M36,47C29.9,47 25,42.1 25,36C25,29.9 29.9,25 36,25C42.1,25 47,29.9 47,36C47,42.1 42.1,47 36,47ZM36,27C31,27 27,31 27,36C27,41 31,45 36,45C41,45 45,41 45,36C45,31 41,27 36,27Z" style="fill:rgb(31,180,183);fill-rule:nonzero;"/>
        <path d="M14,20L7,20C6.4,20 6,19.6 6,19C6,18.4 6.4,18 7,18L14,18C14.6,18 15,18.4 15,19C15,19.6 14.6,20 14,20Z" style="fill:rgb(31,180,183);fill-rule:nonzero;"/>
        <path d="M26,24L7,24C6.4,24 6,23.6 6,23C6,22.4 6.4,22 7,22L26,22C26.6,22 27,22.4 27,23C27,23.6 26.6,24 26,24Z" style="fill:rgb(31,180,183);fill-rule:nonzero;"/>
        <path d="M36,41.9C33.3,41.9 31,40.1 30.3,37.5C30.2,37 30.5,36.4 31,36.3C31.5,36.2 32.1,36.5 32.2,37C32.6,38.7 34.2,39.9 36,39.9C37.8,39.9 39.3,38.7 39.8,37C39.9,36.5 40.5,36.1 41,36.3C41.5,36.4 41.9,37 41.7,37.5C41,40.1 38.7,41.9 36,41.9Z" style="fill:rgb(31,180,183);fill-rule:nonzero;"/>
        <path d="M40.7,35.8C40.3,35.8 39.8,35.5 39.7,35C39.3,33.3 37.7,32.1 35.9,32.1C34.1,32.1 32.6,33.3 32.1,35C32,35.5 31.4,35.9 30.9,35.7C30.4,35.6 30,35 30.2,34.5C30.9,31.9 33.2,30.1 35.9,30.1C38.6,30.1 40.9,31.9 41.6,34.5C41.7,35 41.4,35.6 40.9,35.7C40.9,35.8 40.8,35.8 40.7,35.8Z" style="fill:rgb(31,180,183);fill-rule:nonzero;"/>
        <path d="M40.9,35.8L40.7,35.8L38.3,35.2C37.8,35.1 37.4,34.5 37.6,34C37.7,33.5 38.3,33.1 38.8,33.3L40.3,33.7L40.7,32.2C40.8,31.7 41.4,31.3 41.9,31.5C42.4,31.6 42.8,32.2 42.6,32.7L41.9,35C41.7,35.5 41.3,35.8 40.9,35.8Z" style="fill:rgb(31,180,183);fill-rule:nonzero;"/>
        <path d="M30.5,40.7L30.3,40.7C29.8,40.6 29.4,40 29.6,39.5L30.2,37.1C30.3,36.6 30.9,36.2 31.4,36.4L33.8,37C34.3,37.1 34.7,37.7 34.5,38.2C34.4,38.7 33.8,39.1 33.3,38.9L31.8,38.5L31.4,40C31.4,40.4 30.9,40.7 30.5,40.7Z" style="fill:rgb(31,180,183);fill-rule:nonzero;"/>
    </g>
</svg>
