<?xml version="1.0" encoding="UTF-8" standalone="no"?>
<!DOCTYPE svg PUBLIC "-//W3C//DTD SVG 1.1//EN" "http://www.w3.org/Graphics/SVG/1.1/DTD/svg11.dtd">
<svg width="100%" height="100%" viewBox="0 0 45 33" version="1.1" xmlns="http://www.w3.org/2000/svg" xmlns:xlink="http://www.w3.org/1999/xlink" xml:space="preserve" xmlns:serif="http://www.serif.com/" style="fill-rule:evenodd;clip-rule:evenodd;stroke-linejoin:round;stroke-miterlimit:2;">
    <g transform="matrix(1,0,0,1,-1,-9)">
        <path d="M41,42L6,42C3.2,42 1,39.8 1,37L1,14C1,11.2 3.2,9 6,9L41,9C43.8,9 46,11.2 46,14L46,37C46,39.8 43.8,42 41,42ZM6,11C4.3,11 3,12.3 3,14L3,37C3,38.7 4.3,40 6,40L41,40C42.7,40 44,38.7 44,37L44,14C44,12.3 42.7,11 41,11L6,11Z" style="fill:rgb(31,180,183);fill-rule:nonzero;"/>
        <path d="M45,20L2,20C1.4,20 1,19.6 1,19C1,18.4 1.4,18 2,18L45,18C45.6,18 46,18.4 46,19C46,19.6 45.6,20 45,20Z" style="fill:rgb(31,180,183);fill-rule:nonzero;"/>
        <path d="M39,33L24,33C23.4,33 23,32.6 23,32C23,31.4 23.4,31 24,31L39,31C39.6,31 40,31.4 40,32C40,32.6 39.6,33 39,33Z" style="fill:rgb(31,180,183);fill-rule:nonzero;"/>
    </g>
</svg>
