<?xml version="1.0" encoding="UTF-8" standalone="no"?>
<!DOCTYPE svg PUBLIC "-//W3C//DTD SVG 1.1//EN" "http://www.w3.org/Graphics/SVG/1.1/DTD/svg11.dtd">
<svg width="100%" height="100%" viewBox="0 0 46 40" version="1.1" xmlns="http://www.w3.org/2000/svg" xmlns:xlink="http://www.w3.org/1999/xlink" xml:space="preserve" xmlns:serif="http://www.serif.com/" style="fill-rule:evenodd;clip-rule:evenodd;stroke-linejoin:round;stroke-miterlimit:2;">
    <g transform="matrix(1,0,0,1,-1,-8)">
        <path d="M24,41L6,41C3.2,41 1,38.8 1,36L1,13C1,10.2 3.2,8 6,8L41,8C43.8,8 46,10.2 46,13L46,27C46,27.6 45.6,28 45,28C44.4,28 44,27.6 44,27L44,13C44,11.3 42.7,10 41,10L6,10C4.3,10 3,11.3 3,13L3,36C3,37.7 4.3,39 6,39L24,39C24.6,39 25,39.4 25,40C25,40.6 24.6,41 24,41Z" style="fill:rgb(31,180,183);fill-rule:nonzero;"/>
        <path d="M45,18L2,18C1.4,18 1,17.6 1,17C1,16.4 1.4,16 2,16L45,16C45.6,16 46,16.4 46,17C46,17.6 45.6,18 45,18Z" style="fill:rgb(31,180,183);fill-rule:nonzero;"/>
        <path d="M45,25L2,25C1.4,25 1,24.6 1,24C1,23.4 1.4,23 2,23L45,23C45.6,23 46,23.4 46,24C46,24.6 45.6,25 45,25Z" style="fill:rgb(31,180,183);fill-rule:nonzero;"/>
        <rect x="25" y="19" width="2" height="3" style="fill:rgb(31,180,183);"/>
        <rect x="29" y="19" width="2" height="3" style="fill:rgb(31,180,183);"/>
        <rect x="33" y="19" width="2" height="3" style="fill:rgb(31,180,183);"/>
        <rect x="37" y="19" width="2" height="3" style="fill:rgb(31,180,183);"/>
        <path d="M37.5,47.3C33.7,47.3 30.4,44.9 29.2,41.3C29,40.8 29.3,40.2 29.8,40C30.3,39.8 30.9,40.1 31.1,40.6C32,43.4 34.6,45.2 37.5,45.2C41.2,45.2 44.3,42.2 44.3,38.4C44.3,34.7 41.3,31.6 37.5,31.6C35.3,31.6 33.3,32.6 32,34.4C31.7,34.8 31.1,34.9 30.6,34.6C30.2,34.3 30.1,33.7 30.4,33.2C32,30.9 34.7,29.6 37.5,29.6C42.3,29.6 46.3,33.5 46.3,38.4C46.3,43.3 42.4,47.3 37.5,47.3Z" style="fill:rgb(31,180,183);fill-rule:nonzero;"/>
        <path d="M28,45C27.9,45 27.7,45 27.6,44.9C27.1,44.7 26.9,44.1 27.2,43.6L29.6,38.9L34.4,40.1C34.9,40.2 35.3,40.8 35.1,41.3C35,41.8 34.4,42.2 33.9,42L30.7,41.2L29.1,44.5C28.7,44.8 28.4,45 28,45Z" style="fill:rgb(31,180,183);fill-rule:nonzero;"/>
    </g>
</svg>
