<?xml version="1.0" encoding="UTF-8" standalone="no"?>
<!DOCTYPE svg PUBLIC "-//W3C//DTD SVG 1.1//EN" "http://www.w3.org/Graphics/SVG/1.1/DTD/svg11.dtd">
<svg width="100%" height="100%" viewBox="0 0 44 47" version="1.1" xmlns="http://www.w3.org/2000/svg" xmlns:xlink="http://www.w3.org/1999/xlink" xml:space="preserve" xmlns:serif="http://www.serif.com/" style="fill-rule:evenodd;clip-rule:evenodd;stroke-linejoin:round;stroke-miterlimit:2;">
    <g transform="matrix(1,0,0,1,-2,-0.175)">
        <path d="M43,47L5,47C3.3,47 2,45.7 2,44L2,21.3C2,20.2 2.5,19.2 3.2,18.4L7.2,14.6L8.6,16L4.6,19.8C4.2,20.2 4,20.7 4,21.3L4,44C4,44.6 4.4,45 5,45L43,45C43.6,45 44,44.6 44,44L44,21.3C44,20.8 43.8,20.2 43.4,19.9L39.4,16.1L40.8,14.7L44.8,18.5C45.6,19.3 46,20.3 46,21.4L46,44C46,45.7 44.7,47 43,47Z" style="fill:rgb(31,180,183);fill-rule:nonzero;"/>
        <path d="M30.3,7.4L25.3,2.7C24.5,2 23.3,2 22.5,2.7L17.5,7.4L16.3,6L21.3,1.3C22.8,-0.2 25.3,-0.2 26.8,1.3L31.8,6L30.3,7.4Z" style="fill:rgb(31,180,183);fill-rule:nonzero;"/>
        <path d="M3.7,46.7L2.3,45.3L15.7,31.9C16.3,31.3 17,31 17.8,31L31.1,31C31.9,31 32.7,31.3 33.3,32L45.7,45.4L44.2,46.8L31.9,33.3C31.7,33.1 31.4,33 31.2,33L17.8,33C17.5,33 17.3,33.1 17.1,33.3L3.7,46.7Z" style="fill:rgb(31,180,183);fill-rule:nonzero;"/>
        <g transform="matrix(0.7926,0.6097,-0.6097,0.7926,19.042,0.014276)">
            <rect x="1.3" y="27" width="16.4" height="2" style="fill:rgb(31,180,183);fill-rule:nonzero;"/>
        </g>
        <g transform="matrix(0.6726,0.74,-0.74,0.6726,33.6509,-20.0629)">
            <rect x="38.5" y="20.6" width="2" height="14.9" style="fill:rgb(31,180,183);fill-rule:nonzero;"/>
        </g>
        <path d="M41,27L39,27L39,9C39,8.4 38.6,8 38,8L10,8C9.4,8 9,8.4 9,9L9,27L7,27L7,9C7,7.3 8.3,6 10,6L38,6C39.7,6 41,7.3 41,9L41,27Z" style="fill:rgb(31,180,183);fill-rule:nonzero;"/>
        <path d="M20,15L14,15C13.4,15 13,14.6 13,14C13,13.4 13.4,13 14,13L20,13C20.6,13 21,13.4 21,14C21,14.6 20.6,15 20,15Z" style="fill:rgb(31,180,183);fill-rule:nonzero;"/>
        <path d="M34,19L14,19C13.4,19 13,18.6 13,18C13,17.4 13.4,17 14,17L34,17C34.6,17 35,17.4 35,18C35,18.6 34.6,19 34,19Z" style="fill:rgb(31,180,183);fill-rule:nonzero;"/>
        <path d="M34,23L14,23C13.4,23 13,22.6 13,22C13,21.4 13.4,21 14,21L34,21C34.6,21 35,21.4 35,22C35,22.6 34.6,23 34,23Z" style="fill:rgb(31,180,183);fill-rule:nonzero;"/>
    </g>
</svg>
