<?xml version="1.0" encoding="UTF-8" standalone="no"?>
<!DOCTYPE svg PUBLIC "-//W3C//DTD SVG 1.1//EN" "http://www.w3.org/Graphics/SVG/1.1/DTD/svg11.dtd">
<svg width="100%" height="100%" viewBox="0 0 44 44" version="1.1" xmlns="http://www.w3.org/2000/svg" xmlns:xlink="http://www.w3.org/1999/xlink" xml:space="preserve" xmlns:serif="http://www.serif.com/" style="fill-rule:evenodd;clip-rule:evenodd;stroke-linejoin:round;stroke-miterlimit:2;">
    <g transform="matrix(1,0,0,1,-2,-2)">
        <path d="M37,45C36.4,45 36,44.6 36,44L36,32C36,31.4 36.4,31 37,31C37.6,31 38,31.4 38,32L38,44C38,44.6 37.6,45 37,45Z" style="fill:rgb(73,84,106);fill-rule:nonzero;"/>
        <path d="M42,38C41.7,38 41.5,37.9 41.3,37.7L37,33.4L32.7,37.7C32.3,38.1 31.7,38.1 31.3,37.7C30.9,37.3 30.9,36.7 31.3,36.3L37,30.6L42.7,36.3C43.1,36.7 43.1,37.3 42.7,37.7C42.5,37.9 42.3,38 42,38Z" style="fill:rgb(73,84,106);fill-rule:nonzero;"/>
        <path d="M23.7,31C20.9,31 19.6,29.2 19.1,28.6L19,28.4C18.6,28 18.7,27.3 19.1,26.9C19.5,26.5 20.2,26.6 20.5,27L20.6,27.1C21,27.6 21.8,28.6 23.7,28.6C24.7,28.6 25.5,27.8 25.7,26.8C25.9,25.4 24.7,24.2 22.5,23.4C19.8,22.5 19.2,20.2 19.5,18.6C19.8,16.6 21.6,14.9 23.7,14.9C26.4,14.9 27.6,17.4 27.6,17.5C27.8,18 27.6,18.7 27.1,18.9C26.6,19.1 26,18.8 25.8,18.3C25.8,18.2 25.1,16.9 23.7,16.9C22.5,16.9 21.7,18 21.5,18.9C21.3,20 22,20.9 23.2,21.4C28,23.1 27.9,26.3 27.8,27.2C27.4,29.3 25.7,31 23.7,31Z" style="fill:rgb(73,84,106);fill-rule:nonzero;"/>
        <path d="M24,33C23.4,33 23,32.6 23,32L23,14C23,13.4 23.4,13 24,13C24.6,13 25,13.4 25,14L25,32C25,32.6 24.6,33 24,33Z" style="fill:rgb(73,84,106);fill-rule:nonzero;"/>
        <path d="M24,46C11.9,46 2,36.1 2,24C2,11.9 11.9,2 24,2C36.1,2 46,11.9 46,24C46,25.1 45.9,26.3 45.7,27.7C45.6,28.2 45.1,28.6 44.5,28.5C44,28.4 43.6,27.9 43.7,27.3C43.9,26.1 44,25 44,24C44,13 35,4 24,4C13,4 4,13 4,24C4,35 13,44 24,44C25,44 26.1,43.9 27.3,43.7C27.9,43.6 28.4,44 28.5,44.5C28.6,45 28.2,45.6 27.7,45.7C26.3,45.9 25.1,46 24,46Z" style="fill:rgb(73,84,106);fill-rule:nonzero;"/>
        <path d="M24,41.6C14.3,41.6 6.4,33.7 6.4,24C6.4,14.3 14.3,6.4 24,6.4C33.7,6.4 41.6,14.3 41.6,24C41.6,24.6 41.2,25 40.6,25C40,25 39.6,24.6 39.6,24C39.6,15.4 32.6,8.4 24,8.4C15.4,8.4 8.4,15.4 8.4,24C8.4,32.6 15.4,39.6 24,39.6C24.6,39.6 25,40 25,40.6C25,41.2 24.6,41.6 24,41.6Z" style="fill:rgb(73,84,106);fill-rule:nonzero;"/>
    </g>
</svg>
