<?xml version="1.0" encoding="utf-8"?>
<!-- Generator: Adobe Illustrator 17.0.0, SVG Export Plug-In . SVG Version: 6.00 Build 0)  -->
<!DOCTYPE svg PUBLIC "-//W3C//DTD SVG 1.1//EN" "http://www.w3.org/Graphics/SVG/1.1/DTD/svg11.dtd">
<svg version="1.1" xmlns="http://www.w3.org/2000/svg" xmlns:xlink="http://www.w3.org/1999/xlink" x="0px" y="0px" width="48px"
	 height="48px" viewBox="0 0 48 48" enable-background="new 0 0 48 48" xml:space="preserve">
<g id="Layer_1">
	<g display="none">
	</g>
</g>
<g id="eye-close">
</g>
<g id="eye-reader">
</g>
<g id="thump-block">
</g>
<g id="thump-locker">
</g>
<g id="locker-block">
</g>
<g id="locker-large">
</g>
<g id="locker-no">
</g>
<g id="locker-2">
</g>
<g id="partsal-2">
</g>
<g id="partsal">
</g>
<g id="wallet-close">
</g>
<g id="wallet-check">
</g>
<g id="wallet-notify">
</g>
<g id="wallet-add">
</g>
<g id="wallet-1">
</g>
<g id="wallet">
</g>
<g id="files-3">
</g>
<g id="dollar-bill">
</g>
<g id="report-up">
</g>
<g id="report-down">
</g>
<g id="progress-bar-1">
</g>
<g id="progres-bar">
</g>
<g id="save-dollar">
</g>
<g id="save">
</g>
<g id="cash">
</g>
<g id="report">
</g>
<g id="report-1">
</g>
<g id="bank-1">
</g>
<g id="locker">
</g>
<g id="bank-2">
</g>
<g id="bank">
</g>
<g id="shopping-bag_1_">
</g>
<g id="card-cart_1_">
</g>
<g id="fill-cart">
</g>
<g id="cart">
</g>
<g id="card-reload">
</g>
<g id="card-unloack">
</g>
<g id="card-lock">
</g>
<g id="card-close">
</g>
<g id="card-pass">
</g>
<g id="signature">
</g>
<g id="secreat-number">
</g>
<g id="credit-card">
</g>
<g id="amex-card">
</g>
<g id="visa-card">
</g>
<g id="brocken-card">
</g>
<g id="code-card">
</g>
<g id="card">
</g>
<g id="single-delivery">
</g>
<g id="delivery">
</g>
<g id="vehicle">
</g>
<g id="truck">
</g>
<g id="hundred">
</g>
<g id="percentage">
</g>
<g id="offer-dollar">
</g>
<g id="dollar_1_">
</g>
<g id="dollar-out">
</g>
<g id="dollar-in">
	<path fill="#007AFF" d="M23.7,31c-2.8,0-4.1-1.8-4.6-2.4L19,28.4c-0.4-0.4-0.3-1.1,0.1-1.5c0.4-0.4,1.1-0.3,1.4,0.1l0.1,0.1
		c0.4,0.5,1.2,1.5,3.1,1.5c1,0,1.8-0.8,2-1.8c0.2-1.4-1-2.6-3.2-3.4c-2.7-0.9-3.3-3.1-3-4.6c0.4-2,2.1-3.5,4.2-3.5
		c2.7,0,3.9,2.3,3.9,2.4c0.2,0.5,0,1.1-0.5,1.3c-0.5,0.2-1.1,0-1.3-0.5c0-0.1-0.7-1.2-2.1-1.3c-1.2,0-2.1,0.9-2.2,1.8
		c-0.2,1.1,0.5,1.9,1.7,2.4c4.8,1.7,4.7,4.9,4.6,5.8C27.4,29.3,25.7,31,23.7,31C23.7,31,23.7,31,23.7,31z"/>
	<path fill="#007AFF" d="M24,33c-0.6,0-1-0.4-1-1V14c0-0.6,0.4-1,1-1s1,0.4,1,1v18C25,32.6,24.6,33,24,33z"/>
	<path fill="#007AFF" d="M37,43c-0.6,0-1-0.4-1-1V31c0-0.6,0.4-1,1-1s1,0.4,1,1v11C38,42.6,37.6,43,37,43z"/>
	<path fill="#007AFF" d="M37,43.4l-5.7-5.7c-0.4-0.4-0.4-1,0-1.4s1-0.4,1.4,0l4.3,4.3l4.3-4.3c0.4-0.4,1-0.4,1.4,0s0.4,1,0,1.4
		L37,43.4z"/>
	<path fill="#007AFF" d="M24,46C11.9,46,2,36.1,2,24S11.9,2,24,2s22,9.9,22,22c0,1.1-0.1,2.3-0.3,3.7c-0.1,0.5-0.6,0.9-1.2,0.8
		s-0.9-0.6-0.8-1.2C43.9,26.1,44,25,44,24c0-11-9-20-20-20S4,13,4,24s9,20,20,20c1,0,2.1-0.1,3.3-0.3c0.5-0.1,1.1,0.3,1.2,0.8
		s-0.3,1.1-0.8,1.2C26.3,45.9,25.1,46,24,46z"/>
	<path fill="#007AFF" d="M24,41.6c-9.7,0-17.6-7.9-17.6-17.6S14.3,6.4,24,6.4S41.6,14.3,41.6,24c0,0.6-0.4,1-1,1s-1-0.4-1-1
		c0-8.6-7-15.6-15.6-15.6S8.4,15.4,8.4,24s7,15.6,15.6,15.6c0.6,0,1,0.4,1,1S24.6,41.6,24,41.6z"/>
</g>
<g id="money-exchange-2">
</g>
<g id="money-exchange">
</g>
<g id="money-rotate-2">
</g>
<g id="money-rotate">
</g>
<g id="mocey-bag">
</g>
<g id="currency-ten">
</g>
<g id="currency-one">
</g>
<g id="currency-head">
</g>
<g id="currency-bitcoin">
</g>
<g id="currency_2_">
</g>
<g id="currency_1_">
</g>
<g id="currency-2">
</g>
<g id="coin-4_1_">
</g>
<g id="coin-3">
</g>
<g id="coin-1">
</g>
<g id="coin-2">
</g>
<g id="coins-s">
</g>
<g id="doller-q-2">
</g>
<g id="coins-q">
</g>
<g id="dollers-2">
</g>
<g id="dollers-1">
</g>
<g id="dollers">
</g>
<g id="dollar">
</g>
<g id="coins">
</g>
<g id="coin">
</g>
<g id="offer-bag">
</g>
<g id="shopping-bag">
</g>
<g id="s-calculater">
</g>
<g id="calculater">
</g>
<g id="into-divider">
</g>
<g id="add-minus">
</g>
<g id="digital-calculater">
</g>
<g id="adding">
</g>
<g id="galexy">
</g>
<g id="abacus">
</g>
<g id="coin-4">
</g>
<g id="bitcoin">
</g>
<g id="currency">
</g>
<g id="currency-100">
</g>
<g id="dollar-bag">
</g>
<g id="files">
</g>
<g id="files-2">
</g>
</svg>
