<?xml version="1.0" encoding="UTF-8" standalone="no"?>
<!DOCTYPE svg PUBLIC "-//W3C//DTD SVG 1.1//EN" "http://www.w3.org/Graphics/SVG/1.1/DTD/svg11.dtd">
<svg width="100%" height="100%" viewBox="0 0 47 46" version="1.1" xmlns="http://www.w3.org/2000/svg" xmlns:xlink="http://www.w3.org/1999/xlink" xml:space="preserve" xmlns:serif="http://www.serif.com/" style="fill-rule:evenodd;clip-rule:evenodd;stroke-linejoin:round;stroke-miterlimit:2;">
    <g transform="matrix(1,0,0,1,-1,-1)">
        <path d="M26,37L4,37C2.3,37 1,35.7 1,34L1,4C1,2.3 2.3,1 4,1L34,1C35.7,1 37,2.3 37,4L37,26L35,26L35,4C35,3.4 34.6,3 34,3L4,3C3.4,3 3,3.4 3,4L3,34C3,34.6 3.4,35 4,35L26,35L26,37Z" style="fill:rgb(244,32,85);fill-rule:nonzero;"/>
        <path d="M6,7.5C5.2,7.5 4.5,6.8 4.5,6C4.5,5.2 5.2,4.5 6,4.5C6.8,4.5 7.5,5.2 7.5,6C7.5,6.8 6.8,7.5 6,7.5ZM6,5.5C5.7,5.5 5.5,5.7 5.5,6C5.5,6.3 5.7,6.5 6,6.5C6.3,6.5 6.5,6.3 6.5,6C6.5,5.7 6.3,5.5 6,5.5Z" style="fill:rgb(244,32,85);fill-rule:nonzero;"/>
        <path d="M10,7.5C9.2,7.5 8.5,6.8 8.5,6C8.5,5.2 9.2,4.5 10,4.5C10.8,4.5 11.5,5.2 11.5,6C11.5,6.8 10.8,7.5 10,7.5ZM10,5.5C9.7,5.5 9.5,5.7 9.5,6C9.5,6.3 9.7,6.5 10,6.5C10.3,6.5 10.5,6.3 10.5,6C10.5,5.7 10.3,5.5 10,5.5Z" style="fill:rgb(244,32,85);fill-rule:nonzero;"/>
        <path d="M14,7.5C13.2,7.5 12.5,6.8 12.5,6C12.5,5.2 13.2,4.5 14,4.5C14.8,4.5 15.5,5.2 15.5,6C15.5,6.8 14.8,7.5 14,7.5ZM14,5.5C13.7,5.5 13.5,5.7 13.5,6C13.5,6.3 13.7,6.5 14,6.5C14.3,6.5 14.5,6.3 14.5,6C14.5,5.7 14.3,5.5 14,5.5Z" style="fill:rgb(244,32,85);fill-rule:nonzero;"/>
        <rect x="2" y="9" width="34" height="2" style="fill:rgb(244,32,85);"/>
        <path d="M36,47C33.1,47 30.3,45.9 28.2,43.8C23.9,39.5 23.9,32.5 28.2,28.2C30.3,26.1 33,25 36,25C39,25 41.7,26.1 43.8,28.2C48.1,32.5 48.1,39.5 43.8,43.8C41.7,45.9 38.9,47 36,47ZM36,27C33.6,27 31.3,27.9 29.6,29.6C26.1,33.1 26.1,38.8 29.6,42.3C31.3,44 33.6,44.9 36,44.9C38.4,44.9 40.7,44 42.4,42.3C45.9,38.8 45.9,33.1 42.4,29.6C40.7,27.9 38.4,27 36,27Z" style="fill:rgb(244,32,85);fill-rule:nonzero;"/>
        <path d="M32.5,40.5C32.2,40.5 32,40.4 31.8,40.2C31.4,39.8 31.4,39.2 31.8,38.8L38.9,31.7C39.3,31.3 39.9,31.3 40.3,31.7C40.7,32.1 40.7,32.7 40.3,33.1L33.2,40.2C33,40.4 32.7,40.5 32.5,40.5Z" style="fill:rgb(244,32,85);fill-rule:nonzero;"/>
        <path d="M39.5,40.5C39.2,40.5 39,40.4 38.8,40.2L31.7,33.1C31.3,32.7 31.3,32.1 31.7,31.7C32.1,31.3 32.7,31.3 33.1,31.7L40.2,38.8C40.6,39.2 40.6,39.8 40.2,40.2C40,40.4 39.8,40.5 39.5,40.5Z" style="fill:rgb(244,32,85);fill-rule:nonzero;"/>
        <path d="M14,20L7,20C6.4,20 6,19.6 6,19C6,18.4 6.4,18 7,18L14,18C14.6,18 15,18.4 15,19C15,19.6 14.6,20 14,20Z" style="fill:rgb(244,32,85);fill-rule:nonzero;"/>
        <path d="M26,24L7,24C6.4,24 6,23.6 6,23C6,22.4 6.4,22 7,22L26,22C26.6,22 27,22.4 27,23C27,23.6 26.6,24 26,24Z" style="fill:rgb(244,32,85);fill-rule:nonzero;"/>
    </g>
</svg>
