<?xml version="1.0" encoding="UTF-8" standalone="no"?>
<!DOCTYPE svg PUBLIC "-//W3C//DTD SVG 1.1//EN" "http://www.w3.org/Graphics/SVG/1.1/DTD/svg11.dtd">
<svg width="100%" height="100%" viewBox="0 0 48 42" version="1.1" xmlns="http://www.w3.org/2000/svg" xmlns:xlink="http://www.w3.org/1999/xlink" xml:space="preserve" xmlns:serif="http://www.serif.com/" style="fill-rule:evenodd;clip-rule:evenodd;stroke-linejoin:round;stroke-miterlimit:2;">
    <g transform="matrix(1,0,0,1,0,-3)">
        <path d="M45,11L27.974,11C28.609,10.162 29,9.13 29,8C29,5.243 26.757,3 24,3C21.243,3 19,5.243 19,8C19,9.13 19.391,10.162 20.026,11L3,11C1.346,11 0,12.346 0,14L0,42C0,43.654 1.346,45 3,45L45,45C46.654,45 48,43.654 48,42L48,14C48,12.346 46.654,11 45,11ZM21,8C21,6.346 22.346,5 24,5C25.654,5 27,6.346 27,8C27,9.654 25.654,11 24,11C22.346,11 21,9.654 21,8ZM46,42C46,42.551 45.552,43 45,43L3,43C2.448,43 2,42.551 2,42L2,14C2,13.449 2.448,13 3,13L45,13C45.552,13 46,13.449 46,14L46,42Z" style="fill:rgb(73,84,106);fill-rule:nonzero;"/>
        <path d="M14.474,27.46C16.55,26.515 18,24.426 18,22C18,18.691 15.309,16 12,16C8.691,16 6,18.691 6,22C6,24.426 7.45,26.515 9.526,27.46C6.886,28.462 5,31.012 5,34L5,38C5,38.552 5.447,39 6,39L18,39C18.553,39 19,38.552 19,38L19,34C19,31.012 17.114,28.462 14.474,27.46ZM8,22C8,19.794 9.794,18 12,18C14.206,18 16,19.794 16,22C16,24.206 14.206,26 12,26C9.794,26 8,24.206 8,22ZM17,37L7,37L7,34C7,31.243 9.243,29 12,29C14.757,29 17,31.243 17,34L17,37Z" style="fill:rgb(73,84,106);fill-rule:nonzero;"/>
        <path d="M24,21L31,21C31.553,21 32,20.552 32,20C32,19.448 31.553,19 31,19L24,19C23.447,19 23,19.448 23,20C23,20.552 23.447,21 24,21Z" style="fill:rgb(73,84,106);fill-rule:nonzero;"/>
        <path d="M40,24L24,24C23.447,24 23,24.448 23,25C23,25.552 23.447,26 24,26L40,26C40.553,26 41,25.552 41,25C41,24.448 40.553,24 40,24Z" style="fill:rgb(73,84,106);fill-rule:nonzero;"/>
        <path d="M40,29L24,29C23.447,29 23,29.448 23,30C23,30.552 23.447,31 24,31L40,31C40.553,31 41,30.552 41,30C41,29.448 40.553,29 40,29Z" style="fill:rgb(73,84,106);fill-rule:nonzero;"/>
        <path d="M40,34L24,34C23.447,34 23,34.448 23,35C23,35.552 23.447,36 24,36L40,36C40.553,36 41,35.552 41,35C41,34.448 40.553,34 40,34Z" style="fill:rgb(73,84,106);fill-rule:nonzero;"/>
    </g>
</svg>
