<?xml version="1.0" encoding="UTF-8" standalone="no"?>
<!DOCTYPE svg PUBLIC "-//W3C//DTD SVG 1.1//EN" "http://www.w3.org/Graphics/SVG/1.1/DTD/svg11.dtd">
<svg width="100%" height="100%" viewBox="0 0 22 22" version="1.1" xmlns="http://www.w3.org/2000/svg" xmlns:xlink="http://www.w3.org/1999/xlink" xml:space="preserve" xmlns:serif="http://www.serif.com/" style="fill-rule:evenodd;clip-rule:evenodd;stroke-linecap:round;stroke-linejoin:round;">
    <g transform="matrix(1,0,0,1,-1.06809,-1)">
        <path d="M21,2L19,4M11.39,11.61C12.437,12.643 13.027,14.054 13.027,15.525C13.027,18.542 10.544,21.025 7.527,21.025C6.056,21.025 4.645,20.435 3.612,19.388C2.622,18.363 2.068,16.992 2.068,15.567C2.068,12.55 4.551,10.067 7.568,10.067C8.993,10.067 10.364,10.621 11.389,11.611L11.39,11.61ZM11.39,11.61L15.5,7.5M15.5,7.5L18.5,10.5L22,7L19,4M15.5,7.5L19,4" style="fill:none;fill-rule:nonzero;stroke:rgb(73,84,106);stroke-width:2px;"/>
    </g>
</svg>
