<?xml version="1.0" encoding="UTF-8" standalone="no"?>
<!DOCTYPE svg PUBLIC "-//W3C//DTD SVG 1.1//EN" "http://www.w3.org/Graphics/SVG/1.1/DTD/svg11.dtd">
<svg width="100%" height="100%" viewBox="0 0 46 46" version="1.1" xmlns="http://www.w3.org/2000/svg" xmlns:xlink="http://www.w3.org/1999/xlink" xml:space="preserve" xmlns:serif="http://www.serif.com/" style="fill-rule:evenodd;clip-rule:evenodd;stroke-linejoin:round;stroke-miterlimit:2;">
    <g transform="matrix(1,0,0,1,-0.702891,-1.549)">
        <path d="M37,47C32.038,47 28,42.962 28,38C28,33.038 32.038,29 37,29C41.962,29 46,33.038 46,38C46,42.962 41.962,47 37,47ZM37,31C33.14,31 30,34.14 30,38C30,41.86 33.14,45 37,45C40.86,45 44,41.86 44,38C44,34.14 40.86,31 37,31Z" style="fill:rgb(31,180,183);fill-rule:nonzero;"/>
        <path d="M22.505,29.549C17.148,29.549 13.405,23.123 12.505,20.485C12.459,20.457 12.41,20.426 12.362,20.397C12.008,20.178 11.775,20.033 11.62,19.757C10.33,17.474 9.99,15.644 10.609,14.319C10.903,13.69 11.346,13.307 11.738,13.077C11.738,12.088 11.812,10.216 12.293,8.399C12.313,8.326 14.234,1.549 22.505,1.549C30.776,1.549 32.698,8.326 32.716,8.394C33.198,10.214 33.273,12.086 33.272,13.076C33.664,13.306 34.107,13.689 34.401,14.318C35.021,15.643 34.681,17.473 33.39,19.757C33.235,20.032 33.002,20.177 32.649,20.396C32.601,20.426 32.552,20.456 32.505,20.484C31.606,23.122 27.864,29.549 22.505,29.549ZM13.268,18.606C13.313,18.635 13.365,18.666 13.417,18.699C13.872,18.982 14.201,19.186 14.328,19.621C14.812,21.303 18.084,27.549 22.505,27.549C26.926,27.549 30.198,21.303 30.681,19.625C30.807,19.186 31.137,18.981 31.594,18.698C31.646,18.666 31.698,18.635 31.743,18.606C32.937,16.428 32.736,15.477 32.59,15.166C32.422,14.806 32.081,14.717 32.078,14.716C31.583,14.625 31.233,14.18 31.26,13.678C31.261,13.653 31.385,11.179 30.784,8.91C30.725,8.7 29.208,3.549 22.505,3.549C15.802,3.549 14.285,8.7 14.224,8.919C13.625,11.18 13.749,13.654 13.75,13.678C13.777,14.18 13.427,14.625 12.932,14.716C12.917,14.72 12.573,14.813 12.41,15.189C12.273,15.503 12.09,16.458 13.268,18.606Z" style="fill:rgb(31,180,183);fill-rule:nonzero;"/>
        <path d="M26.758,46.283C10.654,46.283 1.864,44.481 1.498,44.404C1.018,44.303 0.681,43.868 0.704,43.378C1.165,33.688 7.201,30.68 11.701,29.26C15.193,28.157 17.021,26.374 17.039,26.356C17.431,25.968 18.064,25.97 18.453,26.363C18.842,26.755 18.839,27.388 18.446,27.777C18.359,27.864 16.251,29.921 12.302,31.167C7.938,32.544 3.431,34.99 2.76,42.604C5.338,43.048 13.677,44.284 26.757,44.284C27.309,44.284 27.757,44.732 27.757,45.284C27.757,45.836 27.311,46.283 26.758,46.283Z" style="fill:rgb(31,180,183);fill-rule:nonzero;"/>
        <path d="M29.601,29.731C29.433,29.731 29.263,29.689 29.106,29.6C27.47,28.667 26.6,27.812 26.564,27.776C26.172,27.387 26.169,26.754 26.558,26.362C26.945,25.97 27.578,25.966 27.97,26.354C27.987,26.371 28.719,27.077 30.097,27.863C30.576,28.136 30.743,28.747 30.47,29.227C30.286,29.55 29.948,29.731 29.601,29.731Z" style="fill:rgb(31,180,183);fill-rule:nonzero;"/>
        <path d="M36,42C35.764,42 35.527,41.917 35.336,41.749L32.403,39.149C31.99,38.782 31.952,38.15 32.318,37.737C32.685,37.324 33.317,37.286 33.73,37.652L35.944,39.615L40.145,35.241C40.528,34.843 41.162,34.831 41.559,35.213C41.957,35.595 41.97,36.229 41.587,36.627L36.72,41.694C36.525,41.896 36.263,42 36,42Z" style="fill:rgb(31,180,183);fill-rule:nonzero;"/>
    </g>
</svg>
