<?xml version="1.0" encoding="UTF-8" standalone="no"?>
<!DOCTYPE svg PUBLIC "-//W3C//DTD SVG 1.1//EN" "http://www.w3.org/Graphics/SVG/1.1/DTD/svg11.dtd">
<svg width="100%" height="100%" viewBox="0 0 47 46" version="1.1" xmlns="http://www.w3.org/2000/svg" xmlns:xlink="http://www.w3.org/1999/xlink" xml:space="preserve" xmlns:serif="http://www.serif.com/" style="fill-rule:evenodd;clip-rule:evenodd;stroke-linejoin:round;stroke-miterlimit:2;">
    <g transform="matrix(1,0,0,1,-1,-0.772)">
        <path d="M36,17.543C33.246,17.543 31.005,15.302 31.005,12.548C31.005,9.794 33.246,7.555 36,7.555C38.754,7.555 40.995,9.795 40.995,12.549C40.995,15.303 38.754,17.543 36,17.543ZM36,9.555C34.349,9.555 33.005,10.898 33.005,12.549C33.005,14.2 34.348,15.544 36,15.544C37.652,15.544 38.995,14.201 38.995,12.549C38.995,10.898 37.651,9.555 36,9.555Z" style="fill:rgb(73,84,106);fill-rule:nonzero;"/>
        <path d="M35.993,39.228C34.948,39.228 34.069,38.444 33.949,37.406C33.587,34.275 31.407,29.856 29.298,25.581C26.815,20.548 24.47,15.794 24.47,12.303C24.47,5.945 29.643,0.772 36.001,0.772C42.359,0.772 47.532,5.945 47.532,12.303C47.532,15.709 45.256,20.253 42.846,25.065C40.652,29.446 38.383,33.976 38.044,37.381C37.942,38.41 37.081,39.204 36.041,39.227C36.033,39.227 36,39.228 35.993,39.228ZM36,2.772C30.745,2.772 26.469,7.047 26.469,12.303C26.469,15.327 28.819,20.09 31.091,24.696C33.275,29.123 35.533,33.701 35.935,37.175L35.994,37.227L35.994,38.227L35.996,37.227C36.429,33.41 38.782,28.712 41.058,24.169C43.258,19.777 45.532,15.236 45.532,12.303C45.531,7.048 41.255,2.772 36,2.772Z" style="fill:rgb(73,84,106);fill-rule:nonzero;"/>
        <path d="M32,46C31.874,46 31.748,45.976 31.628,45.929L16.999,40.077L2.372,45.929C2.063,46.052 1.715,46.014 1.44,45.828C1.165,45.642 1,45.332 1,45L1,9C1,8.591 1.249,8.224 1.628,8.071L16.628,2.071C16.875,1.973 17.149,1.976 17.394,2.081L24.394,5.081C24.901,5.298 25.137,5.886 24.919,6.394C24.702,6.901 24.114,7.138 23.606,6.919L16.987,4.083L3,9.677L3,43.523L16.627,38.071C16.865,37.976 17.131,37.976 17.37,38.071L31.986,43.917L45,38.341L45,23C45,22.448 45.448,22 46,22C46.552,22 47,22.448 47,23L47,39C47,39.4 46.762,39.762 46.394,39.919L32.394,45.919C32.268,45.973 32.134,46 32,46Z" style="fill:rgb(73,84,106);fill-rule:nonzero;"/>
        <path d="M17,40C16.448,40 16,39.552 16,39L16,3C16,2.448 16.448,2 17,2C17.552,2 18,2.448 18,3L18,39C18,39.552 17.552,40 17,40Z" style="fill:rgb(73,84,106);fill-rule:nonzero;"/>
        <path d="M32,46C31.448,46 31,45.552 31,45L31,37C31,36.448 31.448,36 32,36C32.552,36 33,36.448 33,37L33,45C33,45.552 32.552,46 32,46Z" style="fill:rgb(73,84,106);fill-rule:nonzero;"/>
    </g>
</svg>
