<?xml version="1.0" encoding="UTF-8" standalone="no"?>
<!DOCTYPE svg PUBLIC "-//W3C//DTD SVG 1.1//EN" "http://www.w3.org/Graphics/SVG/1.1/DTD/svg11.dtd">
<svg width="100%" height="100%" viewBox="0 0 47 45" version="1.1" xmlns="http://www.w3.org/2000/svg" xmlns:xlink="http://www.w3.org/1999/xlink" xml:space="preserve" xmlns:serif="http://www.serif.com/" style="fill-rule:evenodd;clip-rule:evenodd;stroke-linejoin:round;stroke-miterlimit:2;">
    <g transform="matrix(1,0,0,1,-0.999591,-1)">
        <path d="M24,37C23.734,37 23.479,36.894 23.291,36.705C22.778,36.19 10.744,23.974 10.744,14.256C10.744,6.947 16.691,1 24,1C31.309,1 37.256,6.947 37.256,14.256C37.256,23.928 25.223,36.187 24.711,36.704C24.523,36.893 24.268,37 24,37ZM24,3C17.793,3 12.744,8.049 12.744,14.256C12.744,21.869 21.424,31.777 23.999,34.548C26.572,31.77 35.256,21.833 35.256,14.256C35.256,8.049 30.207,3 24,3Z" style="fill:rgb(73,84,106);fill-rule:nonzero;"/>
        <path d="M24,20.302C20.666,20.302 17.954,17.59 17.954,14.256C17.954,10.922 20.666,8.209 24,8.209C27.334,8.209 30.046,10.921 30.046,14.255C30.046,17.589 27.334,20.302 24,20.302ZM24,10.209C21.769,10.209 19.954,12.024 19.954,14.255C19.954,16.486 21.769,18.301 24,18.301C26.231,18.301 28.046,16.486 28.046,14.255C28.046,12.024 26.231,10.209 24,10.209Z" style="fill:rgb(73,84,106);fill-rule:nonzero;"/>
        <path d="M46,46L2,46C1.653,46 1.332,45.82 1.149,45.526C0.967,45.231 0.95,44.863 1.105,44.553L8.105,30.553C8.275,30.214 8.621,30 9,30L15,30C15.552,30 16,30.448 16,31C16,31.552 15.552,32 15,32L9.618,32L3.618,44L44.382,44L38.382,32L33,32C32.448,32 32,31.552 32,31C32,30.448 32.448,30 33,30L39,30C39.379,30 39.725,30.214 39.895,30.553L46.895,44.553C47.05,44.863 47.033,45.231 46.851,45.526C46.668,45.82 46.347,46 46,46Z" style="fill:rgb(73,84,106);fill-rule:nonzero;"/>
        <path d="M36.001,45C35.986,45 35.971,45 35.956,44.999C35.404,44.975 34.977,44.507 35.001,43.956C35.173,40.076 30.558,39.637 23.014,39.243C21.683,39.173 20.31,39.101 18.925,38.997C15.661,38.752 13.544,37.727 12.633,35.952C11.357,33.463 13.072,30.6 13.146,30.479C13.434,30.008 14.049,29.86 14.521,30.146C14.992,30.433 15.141,31.047 14.855,31.518C14.833,31.555 13.651,33.565 14.417,35.045C14.982,36.139 16.593,36.816 19.076,37.002C20.445,37.105 21.803,37.176 23.119,37.244C30.396,37.624 37.269,37.984 37,44.043C36.975,44.581 36.533,45 36.001,45Z" style="fill:rgb(73,84,106);fill-rule:nonzero;"/>
    </g>
</svg>
