<?xml version="1.0" encoding="UTF-8" standalone="no"?>
<!DOCTYPE svg PUBLIC "-//W3C//DTD SVG 1.1//EN" "http://www.w3.org/Graphics/SVG/1.1/DTD/svg11.dtd">
<svg width="100%" height="100%" viewBox="0 0 31 46" version="1.1" xmlns="http://www.w3.org/2000/svg" xmlns:xlink="http://www.w3.org/1999/xlink" xml:space="preserve" xmlns:serif="http://www.serif.com/" style="fill-rule:evenodd;clip-rule:evenodd;stroke-linejoin:round;stroke-miterlimit:2;">
    <g transform="matrix(1,0,0,1,-8.5,-1.162)">
        <path d="M23.999,47C23.453,47 23.007,46.561 23,46.013L23,45.98C22.978,44.406 20.647,41.076 18.181,37.551C13.868,31.388 8.5,23.717 8.5,16.662C8.5,8.115 15.453,1.162 24,1.162C32.547,1.162 39.5,8.115 39.5,16.662C39.5,23.654 34.15,31.305 29.851,37.453C27.357,41.019 25.002,44.395 25,45.975C25.001,46.522 24.562,47 24.013,47L23.999,47ZM24,3.162C16.556,3.162 10.5,9.218 10.5,16.662C10.5,23.087 15.667,30.472 19.819,36.405C21.544,38.87 23.051,41.024 23.989,42.826C24.93,40.999 26.46,38.811 28.212,36.306C32.35,30.389 37.5,23.024 37.5,16.662C37.5,9.218 31.444,3.162 24,3.162Z" style="fill:rgb(73,84,106);fill-rule:nonzero;"/>
        <path d="M24,21C20.691,21 18,18.084 18,14.5C18,10.916 20.691,8 24,8C27.309,8 30,10.916 30,14.5C30,18.084 27.309,21 24,21ZM24,10C21.794,10 20,12.019 20,14.5C20,16.981 21.794,19 24,19C26.206,19 28,16.981 28,14.5C28,12.019 26.206,10 24,10Z" style="fill:rgb(73,84,106);fill-rule:nonzero;"/>
        <path d="M14,30C13.448,30 13,29.552 13,29C13,23.63 15.996,22.581 18.804,22.02C20.749,21.631 21.007,19.884 21.009,19.867C21.083,19.319 21.592,18.936 22.134,19.01C22.681,19.084 23.065,19.588 22.991,20.135C22.973,20.265 22.523,23.317 19.196,23.982C16.739,24.472 15,25.12 15,29C15,29.552 14.552,30 14,30Z" style="fill:rgb(73,84,106);fill-rule:nonzero;"/>
        <path d="M34,30C33.448,30 33,29.552 33,29C33,25.12 31.261,24.472 28.804,23.98C25.477,23.315 25.027,20.263 25.009,20.133C24.935,19.586 25.319,19.082 25.866,19.008C26.408,18.942 26.912,19.314 26.99,19.857C27.02,20.045 27.325,21.645 29.197,22.019C32.004,22.581 35,23.63 35,29C35,29.552 34.552,30 34,30Z" style="fill:rgb(73,84,106);fill-rule:nonzero;"/>
    </g>
</svg>
