<?xml version="1.0" encoding="UTF-8" standalone="no"?>
<!DOCTYPE svg PUBLIC "-//W3C//DTD SVG 1.1//EN" "http://www.w3.org/Graphics/SVG/1.1/DTD/svg11.dtd">
<svg width="100%" height="100%" viewBox="0 0 45 40" version="1.1" xmlns="http://www.w3.org/2000/svg" xmlns:xlink="http://www.w3.org/1999/xlink" xml:space="preserve" xmlns:serif="http://www.serif.com/" style="fill-rule:evenodd;clip-rule:evenodd;stroke-linejoin:round;stroke-miterlimit:2;">
    <g transform="matrix(1,0,0,1,-1,-2.03125)">
        <path d="M41,42L6,42C3.2,42 1,39.8 1,37L1,14C1,11.2 3.2,9 6,9L12,9C12.6,9 13,9.4 13,10C13,10.6 12.6,11 12,11L6,11C4.3,11 3,12.3 3,14L3,37C3,38.7 4.3,40 6,40L41,40C42.7,40 44,38.7 44,37L44,14C44,12.3 42.7,11 41,11L36,11C35.4,11 35,10.6 35,10C35,9.4 35.4,9 36,9L41,9C43.8,9 46,11.2 46,14L46,37C46,39.8 43.8,42 41,42Z" style="fill:rgb(31,180,183);fill-rule:nonzero;"/>
        <path d="M14,28L12,28C11.4,28 11,27.6 11,27C11,26.4 11.4,26 12,26L14,26C14.6,26 15,26.4 15,27C15,27.6 14.6,28 14,28Z" style="fill:rgb(31,180,183);fill-rule:nonzero;"/>
        <path d="M30,28L26,28C25.4,28 25,27.6 25,27C25,26.4 25.4,26 26,26L30,26C30.6,26 31,26.4 31,27C31,27.6 30.6,28 30,28ZM22,28L18,28C17.4,28 17,27.6 17,27C17,26.4 17.4,26 18,26L22,26C22.6,26 23,26.4 23,27C23,27.6 22.6,28 22,28Z" style="fill:rgb(31,180,183);fill-rule:nonzero;"/>
        <path d="M36,28L34,28C33.4,28 33,27.6 33,27C33,26.4 33.4,26 34,26L36,26C36.6,26 37,26.4 37,27C37,27.6 36.6,28 36,28Z" style="fill:rgb(31,180,183);fill-rule:nonzero;"/>
        <path d="M21.9,13.3L15.3,7.8C14.9,7.4 14.8,6.8 15.2,6.4C15.6,6 16.2,5.9 16.6,6.3L22,10.8L34.4,2.2C34.9,1.9 35.5,2 35.8,2.5C36.1,3 36,3.6 35.5,3.9L21.9,13.3Z" style="fill:rgb(31,180,183);fill-rule:nonzero;"/>
    </g>
</svg>
