<?xml version="1.0" encoding="UTF-8" standalone="no"?>
<!DOCTYPE svg PUBLIC "-//W3C//DTD SVG 1.1//EN" "http://www.w3.org/Graphics/SVG/1.1/DTD/svg11.dtd">
<svg width="100%" height="100%" viewBox="0 0 44 44" version="1.1" xmlns="http://www.w3.org/2000/svg" xmlns:xlink="http://www.w3.org/1999/xlink" xml:space="preserve" xmlns:serif="http://www.serif.com/" style="fill-rule:evenodd;clip-rule:evenodd;stroke-linejoin:round;stroke-miterlimit:2;">
    <g transform="matrix(1,0,0,1,-2.44355,-1.66492)">
        <path d="M45.012,6.485L41.516,2.989C39.749,1.223 36.877,1.225 35.112,2.989L6.272,31.829C6.26,31.841 6.256,31.858 6.244,31.871C6.201,31.919 6.171,31.975 6.137,32.032C6.102,32.091 6.065,32.147 6.043,32.212C6.037,32.227 6.025,32.238 6.021,32.253L2.484,44.274C2.381,44.625 2.478,45.004 2.736,45.263C2.927,45.454 3.182,45.556 3.443,45.556C3.537,45.556 3.633,45.543 3.726,45.516L15.747,41.98C15.763,41.976 15.774,41.963 15.79,41.958C15.853,41.936 15.907,41.9 15.965,41.866C16.023,41.831 16.082,41.8 16.132,41.755C16.144,41.744 16.16,41.74 16.172,41.728L45.012,12.888C46.776,11.123 46.776,8.25 45.012,6.485ZM32.657,8.272L34.072,9.686L9.808,33.95L8.394,32.536L32.657,8.272ZM10.288,41.501L6.499,37.712L7.499,34.433L12,38.898L12,39L11.93,39L13.567,40.587L10.288,41.501ZM11.222,35.364L35.486,11.1L36.9,12.514L12.636,36.778L11.222,35.364ZM5.856,39.897L8.102,42.144L4.92,43.08L5.856,39.897ZM15.465,39.607L14.05,38.192L38.314,13.928L39.729,15.343L15.465,39.607ZM43.598,11.474L41.143,13.929L34.071,6.858L36.526,4.403C37.514,3.417 39.116,3.418 40.102,4.403L43.598,7.899C44.583,8.884 44.583,10.488 43.598,11.474Z" style="fill:rgb(31,180,183);fill-rule:nonzero;"/>
    </g>
</svg>
