<?xml version="1.0" encoding="UTF-8" standalone="no"?>
<!DOCTYPE svg PUBLIC "-//W3C//DTD SVG 1.1//EN" "http://www.w3.org/Graphics/SVG/1.1/DTD/svg11.dtd">
<svg width="100%" height="100%" viewBox="0 0 34 41" version="1.1" xmlns="http://www.w3.org/2000/svg" xmlns:xlink="http://www.w3.org/1999/xlink" xml:space="preserve" xmlns:serif="http://www.serif.com/" style="fill-rule:evenodd;clip-rule:evenodd;stroke-linejoin:round;stroke-miterlimit:2;">
    <g transform="matrix(1,0,0,1,-7.705,-3.95975)">
        <path d="M24.705,44C24.153,44 23.705,43.552 23.705,43C23.705,42.448 24.153,42 24.705,42L24.836,42C25.378,42 25.84,42.438 25.846,42.99C25.852,43.542 25.409,44 24.856,44L24.705,44ZM28.799,43.512C28.355,43.512 27.95,43.215 27.832,42.765C27.692,42.231 28.011,41.684 28.545,41.544C28.848,41.464 29.146,41.376 29.441,41.277C29.967,41.1 30.532,41.386 30.706,41.909C30.881,42.433 30.598,42.999 30.074,43.174C29.739,43.286 29.398,43.387 29.053,43.478C28.968,43.501 28.883,43.512 28.799,43.512ZM33.355,41.502C33.026,41.502 32.704,41.34 32.513,41.043C32.215,40.579 32.349,39.96 32.814,39.661C33.076,39.493 33.334,39.315 33.585,39.13C34.031,38.803 34.656,38.899 34.983,39.343C35.31,39.788 35.215,40.414 34.77,40.741C34.485,40.95 34.193,41.151 33.895,41.343C33.728,41.451 33.541,41.502 33.355,41.502ZM37.071,38.192C36.847,38.192 36.622,38.117 36.436,37.964C36.01,37.613 35.949,36.983 36.3,36.556C36.499,36.315 36.689,36.068 36.872,35.814C37.196,35.367 37.82,35.265 38.268,35.589C38.716,35.912 38.817,36.537 38.493,36.985C38.285,37.273 38.069,37.553 37.844,37.827C37.646,38.068 37.36,38.192 37.071,38.192ZM39.597,33.901C39.475,33.901 39.351,33.879 39.231,33.831C38.717,33.629 38.464,33.048 38.667,32.534C38.781,32.244 38.887,31.95 38.983,31.65C39.152,31.125 39.712,30.837 40.242,31.006C40.767,31.176 41.056,31.739 40.886,32.265C40.777,32.603 40.657,32.937 40.528,33.266C40.374,33.66 39.997,33.901 39.597,33.901ZM40.676,29.039C40.655,29.039 40.635,29.039 40.614,29.037C40.063,29.004 39.643,28.53 39.676,27.978C39.695,27.668 39.704,27.355 39.704,27.04C39.704,26.488 40.152,26.04 40.704,26.04C41.256,26.04 41.704,26.488 41.704,27.04C41.704,27.396 41.693,27.749 41.672,28.099C41.641,28.63 41.2,29.039 40.676,29.039Z" style="fill:rgb(31,180,183);fill-rule:nonzero;"/>
        <path d="M24.705,44.04C15.331,44.04 7.705,36.414 7.705,27.04C7.705,17.666 15.331,10.04 24.705,10.04C25.257,10.04 25.705,10.488 25.705,11.04C25.705,11.592 25.257,12.04 24.705,12.04C16.434,12.04 9.705,18.769 9.705,27.04C9.705,35.311 16.434,42.04 24.705,42.04C25.257,42.04 25.705,42.488 25.705,43.04C25.705,43.592 25.257,44.04 24.705,44.04Z" style="fill:rgb(31,180,183);fill-rule:nonzero;"/>
        <path d="M20.443,18.484C20.187,18.484 19.931,18.386 19.736,18.191C19.345,17.8 19.345,17.168 19.736,16.777L25.291,11.222L19.736,5.667C19.345,5.276 19.345,4.644 19.736,4.253C20.127,3.862 20.759,3.862 21.15,4.253L27.412,10.515C27.803,10.906 27.803,11.538 27.412,11.929L21.15,18.191C20.955,18.387 20.699,18.484 20.443,18.484Z" style="fill:rgb(31,180,183);fill-rule:nonzero;"/>
    </g>
</svg>
