<?xml version="1.0" encoding="UTF-8" standalone="no"?>
<!DOCTYPE svg PUBLIC "-//W3C//DTD SVG 1.1//EN" "http://www.w3.org/Graphics/SVG/1.1/DTD/svg11.dtd">
<svg width="100%" height="100%" viewBox="0 0 44 44" version="1.1" xmlns="http://www.w3.org/2000/svg" xmlns:xlink="http://www.w3.org/1999/xlink" xml:space="preserve" xmlns:serif="http://www.serif.com/" style="fill-rule:evenodd;clip-rule:evenodd;stroke-linejoin:round;stroke-miterlimit:2;">
    <g transform="matrix(1,0,0,1,-2,-2)">
        <path d="M41,46L7,46C4.2,46 2,43.8 2,41L2,7C2,4.2 4.2,2 7,2L41,2C43.8,2 46,4.2 46,7L46,41C46,43.8 43.8,46 41,46ZM7,4C5.3,4 4,5.3 4,7L4,41C4,42.7 5.3,44 7,44L41,44C42.7,44 44,42.7 44,41L44,7C44,5.3 42.7,4 41,4L7,4Z" style="fill:rgb(31,180,183);fill-rule:nonzero;"/>
        <path d="M45,10L3,10C2.4,10 2,9.6 2,9C2,8.4 2.4,8 3,8L45,8C45.6,8 46,8.4 46,9C46,9.6 45.6,10 45,10Z" style="fill:rgb(31,180,183);fill-rule:nonzero;"/>
        <path d="M8,7C7.7,7 7.5,6.9 7.3,6.7C7.1,6.5 7,6.3 7,6C7,5.7 7.1,5.5 7.3,5.3C7.7,4.9 8.3,4.9 8.7,5.3C8.9,5.5 9,5.7 9,6C9,6.3 8.9,6.5 8.7,6.7C8.5,6.9 8.3,7 8,7Z" style="fill:rgb(31,180,183);fill-rule:nonzero;"/>
        <path d="M11,7C10.7,7 10.5,6.9 10.3,6.7C10.1,6.5 10,6.3 10,6C10,5.7 10.1,5.5 10.3,5.3C10.7,4.9 11.3,4.9 11.7,5.3C11.9,5.5 12,5.7 12,6C12,6.3 11.9,6.5 11.7,6.7C11.5,6.9 11.3,7 11,7Z" style="fill:rgb(31,180,183);fill-rule:nonzero;"/>
        <path d="M14,7C13.7,7 13.5,6.9 13.3,6.7C13.1,6.5 13,6.3 13,6C13,5.7 13.1,5.5 13.3,5.3C13.7,4.9 14.3,4.9 14.7,5.3C14.9,5.5 15,5.7 15,6C15,6.3 14.9,6.5 14.7,6.7C14.5,6.9 14.3,7 14,7Z" style="fill:rgb(31,180,183);fill-rule:nonzero;"/>
        <path d="M17,34C16.7,34 16.5,33.9 16.3,33.7L11.3,28.7C10.9,28.3 10.9,27.7 11.3,27.3C11.7,26.9 12.3,26.9 12.7,27.3L17.1,31.7L34.4,17.3C34.8,16.9 35.5,17 35.8,17.4C36.1,17.8 36.1,18.5 35.7,18.8L17.7,33.8C17.5,33.9 17.2,34 17,34Z" style="fill:rgb(31,180,183);fill-rule:nonzero;"/>
    </g>
</svg>
