<?xml version="1.0" encoding="UTF-8" standalone="no"?>
<!DOCTYPE svg PUBLIC "-//W3C//DTD SVG 1.1//EN" "http://www.w3.org/Graphics/SVG/1.1/DTD/svg11.dtd">
<svg width="100%" height="100%" viewBox="0 0 44 47" version="1.1" xmlns="http://www.w3.org/2000/svg" xmlns:xlink="http://www.w3.org/1999/xlink" xml:space="preserve" xmlns:serif="http://www.serif.com/" style="fill-rule:evenodd;clip-rule:evenodd;stroke-linejoin:round;stroke-miterlimit:2;">
    <g transform="matrix(1,0,0,1,-0.330927,-0.966)">
        <path d="M22.783,29.779C17.27,29.779 13.415,23.147 12.495,20.442C12.444,20.41 12.39,20.378 12.336,20.344C11.978,20.121 11.741,19.974 11.585,19.698C10.259,17.351 9.908,15.474 10.543,14.116C10.847,13.466 11.307,13.073 11.71,12.839C11.709,11.825 11.783,9.887 12.281,8.006C12.301,7.931 14.278,0.966 22.783,0.966C31.288,0.966 33.265,7.931 33.283,8.002C33.783,9.887 33.857,11.826 33.855,12.84C34.258,13.074 34.718,13.466 35.022,14.116C35.657,15.473 35.306,17.351 33.98,19.697C33.825,19.973 33.587,20.12 33.228,20.344C33.175,20.377 33.121,20.41 33.07,20.442C32.15,23.149 28.297,29.779 22.783,29.779ZM13.233,18.547C13.281,18.577 13.336,18.611 13.392,18.646C13.859,18.936 14.196,19.146 14.322,19.589C14.821,21.32 18.209,27.78 22.783,27.78C27.359,27.78 30.745,21.321 31.245,19.585C31.371,19.145 31.708,18.936 32.173,18.647C32.229,18.612 32.284,18.579 32.333,18.548C33.575,16.285 33.364,15.291 33.211,14.965C33.031,14.581 32.664,14.485 32.66,14.484C32.166,14.393 31.816,13.948 31.843,13.446C31.844,13.42 31.973,10.864 31.352,8.519C31.291,8.301 29.722,2.967 22.784,2.967C15.793,2.967 14.229,8.467 14.214,8.523C13.595,10.864 13.723,13.42 13.724,13.445C13.751,13.947 13.401,14.392 12.907,14.483C12.888,14.488 12.52,14.587 12.345,14.988C12.2,15.317 12.007,16.314 13.233,18.547Z" style="fill:rgb(31,180,183);fill-rule:nonzero;"/>
        <path d="M29.997,30.094C29.842,30.094 29.685,30.058 29.538,29.982C27.509,28.929 26.905,27.902 26.805,27.707C26.552,27.216 26.746,26.613 27.237,26.361C27.72,26.113 28.31,26.296 28.57,26.768C28.601,26.817 29.035,27.469 30.459,28.207C30.949,28.461 31.141,29.065 30.886,29.555C30.708,29.897 30.359,30.094 29.997,30.094Z" style="fill:rgb(31,180,183);fill-rule:nonzero;"/>
        <path d="M23.304,47.037C11.801,47.037 1.263,45.123 1.15,45.102C0.658,45.012 0.309,44.571 0.332,44.071C0.807,34.098 7.02,31.002 11.651,29.54C15.225,28.412 17.151,26.555 17.17,26.536C17.565,26.151 18.197,26.156 18.583,26.548C18.97,26.941 18.967,27.571 18.576,27.959C18.486,28.048 16.319,30.164 12.253,31.447C7.74,32.873 3.078,35.404 2.39,43.285C5.385,43.776 15.59,45.287 25.973,45C26.528,44.972 26.985,45.42 27,45.972C27.016,46.524 26.581,46.984 26.028,46.999C25.117,47.025 24.208,47.037 23.304,47.037Z" style="fill:rgb(31,180,183);fill-rule:nonzero;"/>
        <path d="M41,47L33,47C31.346,47 30,45.654 30,44L30,38C30,37.448 30.448,37 31,37L43,37C43.552,37 44,37.448 44,38L44,44C44,45.654 42.654,47 41,47ZM32,39L32,44C32,44.551 32.449,45 33,45L41,45C41.551,45 42,44.551 42,44L42,39L32,39Z" style="fill:rgb(31,180,183);fill-rule:nonzero;"/>
        <path d="M42.5,37.75C41.948,37.75 41.5,37.302 41.5,36.75C41.5,34.269 39.481,32.25 37,32.25C34.519,32.25 32.5,34.269 32.5,36.75C32.5,37.302 32.052,37.75 31.5,37.75C30.948,37.75 30.5,37.302 30.5,36.75C30.5,33.166 33.416,30.25 37,30.25C40.584,30.25 43.5,33.166 43.5,36.75C43.5,37.302 43.052,37.75 42.5,37.75Z" style="fill:rgb(31,180,183);fill-rule:nonzero;"/>
    </g>
</svg>
