<svg xmlns="http://www.w3.org/2000/svg" width="10.87" height="23.531" viewBox="0 0 10.87 23.531">
  <defs>
    <style>
      .cls-1 {
        fill: #32c9a4;
        fill-rule: evenodd;
      }
    </style>
  </defs>
  <path id="_" data-name="$" class="cls-1" d="M3725.35,952.456c0-2.675-.88-3.874-3.98-4.949-2.47-.925-2.85-1.35-2.85-2.5a1.5,1.5,0,0,1,1.48-1.6,1.644,1.644,0,0,1,1.62,1.55h3.15c-0.07-2.125-1.4-3.974-3.1-4.3v-3.325h-3.17v3.325a4.312,4.312,0,0,0-3.3,4.548,4.474,4.474,0,0,0,3.22,4.5,12.16,12.16,0,0,1,2.63,1.125,1.853,1.853,0,0,1,.97,1.75,2.045,2.045,0,0,1-2.1,2.074,2.08,2.08,0,0,1-2.1-2.149h-3.35v0.325a5.053,5.053,0,0,0,4.03,4.748v3.3h3.17v-3.3A4.962,4.962,0,0,0,3725.35,952.456Z" transform="translate(-3714.47 -937.344)"/>
</svg>
