<?xml version="1.0" encoding="UTF-8" standalone="no"?>
<!DOCTYPE svg PUBLIC "-//W3C//DTD SVG 1.1//EN" "http://www.w3.org/Graphics/SVG/1.1/DTD/svg11.dtd">
<svg width="100%" height="100%" viewBox="0 0 22 22" version="1.1" xmlns="http://www.w3.org/2000/svg" xmlns:xlink="http://www.w3.org/1999/xlink" xml:space="preserve" xmlns:serif="http://www.serif.com/" style="fill-rule:evenodd;clip-rule:evenodd;stroke-linejoin:round;stroke-miterlimit:2;">
    <g transform="matrix(1,0,0,1,-0.000242149,4.44089e-16)">
        <g transform="matrix(1,0,0,1,-23.6596,-1)">
            <path d="M43.098,5.177C41.943,5.15 41.025,4.209 41.038,3.066C41.051,1.923 41.99,1.002 43.145,1C43.716,1.009 44.259,1.242 44.656,1.649C45.052,2.055 45.269,2.601 45.258,3.165C45.216,4.308 44.253,5.204 43.098,5.177ZM25.721,22.999C24.565,22.973 23.646,22.031 23.66,20.887C23.673,19.742 24.615,18.822 25.771,18.822C26.956,18.844 27.9,19.811 27.88,20.984C27.839,22.128 26.877,23.026 25.721,22.999ZM29.478,15.404C28.844,14.407 28.508,13.254 28.509,12.076C28.454,8.767 31.116,6.038 34.46,5.974C35.617,5.976 36.746,6.322 37.701,6.967L39.999,4.612C38.424,3.367 36.469,2.688 34.453,2.686C29.302,2.777 25.202,6.983 25.295,12.08C25.291,14.124 25.95,16.116 27.175,17.762L29.478,15.404ZM39.439,8.748C40.075,9.744 40.412,10.898 40.41,12.076C40.464,15.387 37.799,18.117 34.453,18.176C33.296,18.174 32.167,17.829 31.211,17.183L28.914,19.539C30.487,20.783 32.439,21.463 34.453,21.469C36.926,21.425 39.281,20.411 40.999,18.649C42.717,16.887 43.657,14.522 43.613,12.074C43.617,10.03 42.959,8.038 41.734,6.391L39.439,8.748Z" style="fill:rgb(0,184,204);"/>
        </g>
    </g>
</svg>
