<svg clip-rule="evenodd" fill-rule="evenodd" stroke-linejoin="round" stroke-miterlimit="2" viewBox="0 0 440 100" xmlns="http://www.w3.org/2000/svg"><g fill="#49546a"><path d="m939.972 465.344c9.101-9.457 21.882-15.344 36.028-15.344 17.933 0 33.67 9.462 42.5 23.663 8.82-14.2 24.57-23.663 42.5-23.663 27.49 0 49.83 22.23 50 49.677v50.323h-15v-50c0-19.317-15.68-35-35-35s-35 15.683-35 35v50h-15v-50c0-19.317-15.683-35-35-35-11.76 0-22.173 5.813-28.52 14.718-1.854-5.155-4.393-9.983-7.508-14.374z" transform="translate(-671 -450)"/><path d="m769.972 465.344c9.101-9.457 21.882-15.344 36.028-15.344 17.933 0 33.674 9.462 42.5 23.663 8.824-14.2 24.566-23.663 42.5-23.663 27.488 0 49.825 22.23 49.999 49.677l.001.323v50h-15v-50c0-19.317-15.683-35-35-35s-35 15.683-35 35v50h-15v-50c0-19.317-15.683-35-35-35-11.76 0-22.173 5.813-28.52 14.718-1.854-5.155-4.393-9.983-7.508-14.374z" transform="translate(-671 -450)"/><path d="m1064 923c27.6 0 50 22.404 50 50 0 27.6-22.4 50-50 50s-50-22.4-50-50c0-27.596 22.4-50 50-50zm0 15c19.32 0 35 15.683 35 35s-15.68 35-35 35-35-15.683-35-35 15.68-35 35-35z" transform="translate(-1014 -923)"/></g></svg>