<?xml version="1.0" encoding="UTF-8" standalone="no"?>
<!DOCTYPE svg PUBLIC "-//W3C//DTD SVG 1.1//EN" "http://www.w3.org/Graphics/SVG/1.1/DTD/svg11.dtd">
<svg width="100%" height="100%" viewBox="0 0 89 89" version="1.1" xmlns="http://www.w3.org/2000/svg" xmlns:xlink="http://www.w3.org/1999/xlink" xml:space="preserve" xmlns:serif="http://www.serif.com/" style="fill-rule:evenodd;clip-rule:evenodd;stroke-linejoin:round;stroke-miterlimit:2;">
    <g transform="matrix(1,0,0,1,-180,-33.164)">
        <g>
            <circle cx="224.05" cy="77.214" r="44.05" style="fill:rgb(54,54,58);"/>
            <g transform="matrix(2.12592,0,0,2.12592,62.8121,-44.5429)">
                <g transform="matrix(1,0,0,1,75.9254,60.7702)">
                    <path d="M0,-15.109C8.996,-15.109 16.391,-8.257 17.251,0.513C17.252,0.428 17.254,0.342 17.254,0.257C17.254,-9.317 9.493,-17.079 -0.081,-17.079C-9.655,-17.079 -17.417,-9.317 -17.417,0.257C-17.417,0.835 -17.388,1.407 -17.333,1.97C-17.195,-7.485 -9.488,-15.109 0,-15.109" style="fill:white;fill-rule:nonzero;"/>
                </g>
                <g>
                    <g transform="matrix(1,0,0,1,73.4518,62.0262)">
                        <path d="M0,0.74C0.186,0.886 0.455,0.875 0.626,0.704C0.812,0.519 0.812,0.219 0.626,0.033C0.598,0.004 0.565,-0.018 0.532,-0.038C0.35,-0.146 0.112,-0.123 -0.044,0.033C-0.229,0.219 -0.229,0.519 -0.044,0.704C-0.03,0.718 -0.015,0.728 0,0.74" style="fill:rgb(31,197,201);fill-rule:nonzero;"/>
                    </g>
                    <g transform="matrix(1,0,0,1,78.7306,62.1292)">
                        <path d="M0,0.721C0.011,0.711 0.023,0.703 0.034,0.693C0.219,0.508 0.219,0.208 0.034,0.022C-0.119,-0.131 -0.35,-0.155 -0.53,-0.055C-0.568,-0.034 -0.605,-0.01 -0.637,0.022C-0.822,0.208 -0.822,0.508 -0.637,0.693C-0.462,0.868 -0.187,0.876 0,0.721" style="fill:rgb(31,197,201);fill-rule:nonzero;"/>
                    </g>
                    <g transform="matrix(1,0,0,1,81.3072,60.4037)">
                        <path d="M0,-6.887C-0.155,-7.353 -0.921,-8.12 -0.913,-8.681C-0.896,-9.752 0.259,-9.536 0.328,-8.75L0.329,-8.75C0.662,-9.465 1.821,-9.273 1.471,-8.261C1.287,-7.731 0.305,-7.272 0,-6.887M-7.249,-8.277C-6.993,-7.795 -6.537,-7.617 -6.537,-7.617L-7.744,-7.364C-7.744,-7.364 -7.4,-7.712 -7.358,-8.252C-7.525,-7.651 -8.495,-7.718 -8.457,-8.457C-8.429,-9.003 -7.718,-9.684 -7.712,-10.217C-7.712,-10.216 -7.712,-10.216 -7.711,-10.216L-7.711,-10.217C-7.492,-9.732 -6.567,-9.393 -6.323,-8.904C-5.991,-8.241 -6.855,-7.791 -7.249,-8.277M-12.53,-4.714L-14.096,-4.559L-15.022,-6.078L-13.252,-6.252L-12.626,-5.228L-12.325,-4.734L-12.53,-4.714ZM5.335,-2.295C5.179,-2.381 5.032,-2.486 4.98,-2.598C4.854,-2.875 4.975,-3.203 5.252,-3.33C5.53,-3.457 5.857,-3.335 5.984,-3.058C6.019,-2.982 6.023,-2.875 6.01,-2.76C6.104,-2.951 6.229,-3.155 6.365,-3.217C6.643,-3.344 6.97,-3.222 7.097,-2.945C7.224,-2.668 7.103,-2.34 6.825,-2.213C6.689,-2.151 6.453,-2.188 6.247,-2.242C6.343,-2.177 6.421,-2.104 6.456,-2.029C6.583,-1.751 6.461,-1.424 6.184,-1.297C5.907,-1.17 5.58,-1.291 5.452,-1.569C5.401,-1.68 5.417,-1.862 5.455,-2.037C5.18,-1.707 5.126,-1.349 5.126,-1.349L4.602,-2.493C4.602,-2.493 4.908,-2.304 5.335,-2.295M-0.207,4.224L8.006,-1.386C8.441,-1.683 8.553,-2.277 8.256,-2.712L4.914,-7.605C4.895,-7.632 4.875,-7.658 4.854,-7.683C4.667,-7.905 4.396,-8.022 4.12,-8.021C4.089,-8.021 4.059,-8.019 4.028,-8.016C3.967,-8.01 3.906,-7.998 3.846,-7.979C3.756,-7.952 3.669,-7.91 3.587,-7.855C3.435,-7.751 3.317,-7.603 3.249,-7.431L1.663,-3.44L1.168,-2.197L2.273,-6.957L2.542,-8.112L2.74,-9.166C2.837,-9.684 2.496,-10.182 1.979,-10.28L-3.845,-11.375C-3.88,-11.382 -3.915,-11.385 -3.949,-11.387C-3.978,-11.389 -4.006,-11.39 -4.034,-11.39C-4.468,-11.385 -4.804,-11.003 -4.795,-10.569L-4.795,-10.566L-4.689,-5.406L-5.314,-8.729L-5.499,-9.712L-5.668,-10.614C-5.674,-10.646 -5.682,-10.678 -5.691,-10.709C-5.7,-10.74 -5.711,-10.77 -5.723,-10.8C-5.771,-10.917 -5.841,-11.021 -5.927,-11.108C-5.992,-11.174 -6.065,-11.229 -6.146,-11.273C-6.253,-11.332 -6.371,-11.371 -6.496,-11.386C-6.589,-11.396 -6.685,-11.393 -6.782,-11.375L-12.606,-10.28C-12.797,-10.244 -12.963,-10.153 -13.093,-10.028C-13.095,-10.025 -13.098,-10.023 -13.1,-10.021C-13.318,-9.806 -13.428,-9.49 -13.367,-9.166L-13.329,-8.964C-13.267,-8.634 -13.107,-8.331 -12.87,-8.093L-12.725,-7.948L-9.532,-4.75L-12.979,-7.105L-14.077,-7.855C-14.118,-7.883 -14.161,-7.907 -14.205,-7.927C-14.281,-7.964 -14.359,-7.99 -14.439,-8.004C-14.494,-8.014 -14.549,-8.02 -14.604,-8.021L-14.609,-8.021C-14.885,-8.022 -15.157,-7.905 -15.344,-7.683C-15.364,-7.658 -15.384,-7.632 -15.403,-7.605L-18.745,-2.712C-18.819,-2.603 -18.868,-2.485 -18.893,-2.363C-18.904,-2.304 -18.911,-2.244 -18.911,-2.184L-18.911,-2.179C-18.913,-1.904 -18.795,-1.632 -18.573,-1.445C-18.548,-1.424 -18.522,-1.405 -18.495,-1.386L-10.282,4.224C-9.868,4.507 -9.311,4.419 -9.002,4.034C-8.486,4.509 -7.683,4.498 -7.183,3.998L-6.986,3.801C-7.495,4.124 -8.176,4.064 -8.619,3.621L-11.294,0.946C-11.387,0.853 -11.462,0.75 -11.521,0.64C-11.651,0.4 -11.7,0.128 -11.669,-0.137C-11.636,-0.421 -11.512,-0.696 -11.294,-0.913L-8.619,-3.588C-8.502,-3.705 -8.368,-3.794 -8.225,-3.858C-7.742,-4.074 -7.156,-3.985 -6.76,-3.588L-6.356,-3.185L-5.723,-2.552L-5.84,-2.227L-5.935,-1.963L-6.162,-1.332C-6.306,-1.47 -6.516,-1.499 -6.689,-1.419C-6.738,-1.396 -6.784,-1.366 -6.825,-1.325C-7.01,-1.14 -7.01,-0.84 -6.825,-0.655C-6.821,-0.652 -6.817,-0.649 -6.814,-0.646C-6.747,-0.582 -6.665,-0.541 -6.579,-0.524C-6.516,-0.665 -6.427,-0.798 -6.312,-0.913L-6.052,-1.173L-6.052,-1.174L-5.6,-1.628L-5.491,-1.738L-5.201,-2.03L-5.198,-2.027L-3.637,-3.588C-3.256,-3.969 -2.7,-4.067 -2.228,-3.883C-2.064,-3.818 -1.91,-3.72 -1.777,-3.588L-1.738,-3.549L0.897,-0.913C0.992,-0.819 1.069,-0.713 1.128,-0.601C1.393,-0.104 1.316,0.527 0.897,0.946L-1.776,3.619L-1.777,3.621C-2.167,4.01 -2.738,4.103 -3.216,3.903L-3.177,3.942C-2.709,4.41 -1.977,4.45 -1.462,4.065C-1.148,4.423 -0.61,4.499 -0.207,4.224" style="fill:rgb(31,197,201);fill-rule:nonzero;"/>
                    </g>
                    <g transform="matrix(1,0,0,1,72.2838,61.6062)">
                        <path d="M0,-0.671C-0.16,-0.511 -0.181,-0.265 -0.065,-0.082C-0.046,-0.053 -0.025,-0.025 0,-0C0.185,0.185 0.485,0.185 0.67,-0C0.74,-0.069 0.783,-0.155 0.801,-0.245C0.83,-0.394 0.787,-0.555 0.67,-0.671C0.485,-0.856 0.185,-0.856 0,-0.671" style="fill:rgb(31,197,201);fill-rule:nonzero;"/>
                    </g>
                    <g transform="matrix(-0.707107,0.707107,0.707107,0.707107,71.9786,60.1568)">
                        <path d="M0.335,-0.81C0.598,-0.81 0.81,-0.597 0.809,-0.335C0.809,-0.074 0.597,0.139 0.335,0.139C0.073,0.139 -0.139,-0.073 -0.14,-0.335C-0.139,-0.597 0.073,-0.81 0.335,-0.81" style="fill:rgb(31,197,201);fill-rule:nonzero;"/>
                    </g>
                    <g transform="matrix(0.707107,-0.707107,-0.707107,-0.707107,73.9287,58.2071)">
                        <path d="M-0.336,-0.139C-0.073,-0.138 0.139,0.074 0.139,0.335C0.139,0.597 -0.073,0.809 -0.336,0.81C-0.597,0.81 -0.809,0.598 -0.81,0.335C-0.809,0.073 -0.597,-0.139 -0.336,-0.139" style="fill:rgb(31,197,201);fill-rule:nonzero;"/>
                    </g>
                    <g transform="matrix(1,0,0,1,76.1441,60.8652)">
                        <path d="M0,-0.663C-0.162,-0.501 -0.182,-0.252 -0.062,-0.068C-0.052,-0.054 -0.04,-0.041 -0.029,-0.028C-0.02,-0.016 -0.011,-0.003 0,0.007C0.154,0.161 0.386,0.186 0.566,0.084C0.604,0.063 0.639,0.039 0.671,0.007C0.747,-0.068 0.79,-0.164 0.803,-0.263C0.823,-0.405 0.78,-0.554 0.671,-0.663C0.485,-0.849 0.185,-0.849 0,-0.663" style="fill:rgb(31,197,201);fill-rule:nonzero;"/>
                    </g>
                    <g transform="matrix(1,0,0,1,77.9386,59.7332)">
                        <path d="M0,-0.655C-0.154,-0.809 -0.386,-0.833 -0.567,-0.731C-0.604,-0.71 -0.639,-0.686 -0.67,-0.655C-0.759,-0.566 -0.804,-0.451 -0.808,-0.335C-0.812,-0.208 -0.767,-0.081 -0.67,0.016C-0.608,0.078 -0.533,0.117 -0.454,0.137L-0.453,0.138C-0.295,0.178 -0.123,0.138 0,0.016C0.186,-0.17 0.186,-0.47 0,-0.655" style="fill:rgb(31,197,201);fill-rule:nonzero;"/>
                    </g>
                    <g transform="matrix(-0.707634,0.706579,0.706579,0.707634,79.1915,58.3002)">
                        <path d="M0.335,-0.81C0.597,-0.81 0.809,-0.598 0.809,-0.335C0.809,-0.073 0.597,0.139 0.335,0.139C0.072,0.138 -0.14,-0.074 -0.139,-0.336C-0.139,-0.598 0.073,-0.81 0.335,-0.81" style="fill:rgb(31,197,201);fill-rule:nonzero;"/>
                    </g>
                    <g transform="matrix(1,0,0,1,79.8883,61.0273)">
                        <path d="M0,0.671C0.04,0.631 0.069,0.585 0.092,0.537C0.175,0.361 0.145,0.146 0,0C-0.185,-0.185 -0.486,-0.185 -0.671,0C-0.771,0.101 -0.815,0.236 -0.807,0.368C-0.799,0.478 -0.755,0.587 -0.671,0.671C-0.486,0.856 -0.185,0.856 0,0.671" style="fill:rgb(31,197,201);fill-rule:nonzero;"/>
                    </g>
                    <g transform="matrix(0.707107,-0.707107,-0.707107,-0.707107,81.1411,60.2487)">
                        <path d="M-0.335,-0.139C-0.074,-0.139 0.139,0.073 0.139,0.335C0.139,0.598 -0.074,0.81 -0.335,0.81C-0.597,0.809 -0.81,0.597 -0.81,0.335C-0.81,0.073 -0.598,-0.139 -0.335,-0.139" style="fill:rgb(31,197,201);fill-rule:nonzero;"/>
                    </g>
                </g>
            </g>
        </g>
    </g>
</svg>
