<?xml version="1.0" encoding="UTF-8" standalone="no"?>
<!DOCTYPE svg PUBLIC "-//W3C//DTD SVG 1.1//EN" "http://www.w3.org/Graphics/SVG/1.1/DTD/svg11.dtd">
<svg width="100%" height="100%" viewBox="0 0 46 33" version="1.1" xmlns="http://www.w3.org/2000/svg" xmlns:xlink="http://www.w3.org/1999/xlink" xml:space="preserve" xmlns:serif="http://www.serif.com/" style="fill-rule:evenodd;clip-rule:evenodd;stroke-linejoin:round;stroke-miterlimit:2;">
    <g transform="matrix(1,0,0,1,-1,-10)">
        <path d="M46,34C41.611,34 39.632,28.061 37.717,22.316C36.025,17.244 34.276,12 31.33,12C28.384,12 26.635,17.244 24.943,22.316C23.028,28.061 21.049,34 16.66,34C12.274,34 10.295,28.061 8.382,22.316C6.691,17.244 4.944,12 2,12C1.447,12 1,11.553 1,11C1,10.447 1.447,10 2,10C6.386,10 8.365,15.939 10.278,21.684C11.969,26.756 13.716,32 16.66,32C19.606,32 21.355,26.756 23.047,21.684C24.962,15.939 26.941,10 31.33,10C35.719,10 37.698,15.939 39.613,21.684C41.305,26.756 43.054,32 46,32C46.553,32 47,32.447 47,33C47,33.553 46.553,34 46,34Z" style="fill:rgb(44,169,183);fill-rule:nonzero;"/>
        <path d="M24,29.8C17.945,29.8 15,25.087 12.152,20.53C9.475,16.246 6.945,12.2 2,12.2C1.447,12.2 1,11.753 1,11.2C1,10.647 1.447,10.2 2,10.2C8.055,10.2 11,14.913 13.848,19.47C16.525,23.754 19.055,27.8 24,27.8C28.945,27.8 31.475,23.754 34.152,19.47C37,14.913 39.945,10.2 46,10.2C46.553,10.2 47,10.647 47,11.2C47,11.753 46.553,12.2 46,12.2C41.055,12.2 38.525,16.246 35.848,20.53C33,25.087 30.055,29.8 24,29.8Z" style="fill:rgb(44,169,183);fill-rule:nonzero;"/>
        <path d="M3,42C2.447,42 2,41.553 2,41L2,40C2,39.447 2.447,39 3,39C3.553,39 4,39.447 4,40L4,41C4,41.553 3.553,42 3,42Z" style="fill:white;fill-rule:nonzero;"/>
        <path d="M9,42C8.447,42 8,41.553 8,41L8,40C8,39.447 8.447,39 9,39C9.553,39 10,39.447 10,40L10,41C10,41.553 9.553,42 9,42Z" style="fill:white;fill-rule:nonzero;"/>
        <path d="M15,42C14.447,42 14,41.553 14,41L14,40C14,39.447 14.447,39 15,39C15.553,39 16,39.447 16,40L16,41C16,41.553 15.553,42 15,42Z" style="fill:white;fill-rule:nonzero;"/>
        <path d="M21,42C20.447,42 20,41.553 20,41L20,40C20,39.447 20.447,39 21,39C21.553,39 22,39.447 22,40L22,41C22,41.553 21.553,42 21,42Z" style="fill:white;fill-rule:nonzero;"/>
        <path d="M27,42C26.447,42 26,41.553 26,41L26,40C26,39.447 26.447,39 27,39C27.553,39 28,39.447 28,40L28,41C28,41.553 27.553,42 27,42Z" style="fill:white;fill-rule:nonzero;"/>
        <path d="M33,42C32.447,42 32,41.553 32,41L32,40C32,39.447 32.447,39 33,39C33.553,39 34,39.447 34,40L34,41C34,41.553 33.553,42 33,42Z" style="fill:white;fill-rule:nonzero;"/>
        <path d="M39,42C38.447,42 38,41.553 38,41L38,40C38,39.447 38.447,39 39,39C39.553,39 40,39.447 40,40L40,41C40,41.553 39.553,42 39,42Z" style="fill:white;fill-rule:nonzero;"/>
        <path d="M45,42C44.447,42 44,41.553 44,41L44,40C44,39.447 44.447,39 45,39C45.553,39 46,39.447 46,40L46,41C46,41.553 45.553,42 45,42Z" style="fill:white;fill-rule:nonzero;"/>
        <path d="M46,43L2,43C1.447,43 1,42.553 1,42C1,41.447 1.447,41 2,41L46,41C46.553,41 47,41.447 47,42C47,42.553 46.553,43 46,43Z" style="fill:white;fill-rule:nonzero;"/>
    </g>
</svg>
