<svg clip-rule="evenodd" fill-rule="evenodd" stroke-linejoin="round" stroke-miterlimit="2" viewBox="0 0 33 44" xmlns="http://www.w3.org/2000/svg"><g fill="#01002a" fill-rule="nonzero" transform="translate(-7.95249 -1)"><path d="m24.17 39.514c-5.449 0-9.826-.729-12.539-1.34-1.323-.298-2.453-1.135-3.102-2.297-.629-1.128-.75-2.475-.33-3.696l1.175-3.417c.856-2.489 1.29-5.08 1.29-7.702v-1.941c.001-7.235 6.06-13.121 13.506-13.121s13.505 5.886 13.505 13.121v1.941c0 2.624.434 5.215 1.29 7.702l1.173 3.411c.419 1.221.299 2.567-.331 3.696-.649 1.163-1.781 2-3.105 2.298-2.728.614-7.118 1.345-12.532 1.345zm0-31.514c-6.344 0-11.505 4.989-11.505 11.121v1.941c0 2.844-.471 5.654-1.398 8.353l-1.175 3.417c-.239.694-.173 1.429.185 2.071.372.667 1.026 1.147 1.794 1.321 2.614.589 6.834 1.291 12.099 1.291 5.23 0 9.463-.705 12.094-1.296.77-.173 1.425-.655 1.797-1.322.358-.642.424-1.377.186-2.07l-1.173-3.411c-.928-2.697-1.398-5.507-1.398-8.353v-1.941c0-6.133-5.161-11.122-11.506-11.122z"/><path d="m19.69 45c-.174 0-.349-.009-.525-.029-1.262-.14-2.394-.762-3.187-1.753s-1.154-2.231-1.014-3.493l.036-1.748 2 .046-.042 1.835c-.086.818.122 1.536.582 2.109.459.574 1.115.935 1.845 1.015 1.519.17 2.871-.924 3.037-2.432l.208-2.134 1.99.194-.209 2.146c-.27 2.441-2.333 4.244-4.721 4.244z"/><path d="m28 7h-2c0-1.103-.897-2-2-2s-2 .897-2 2h-2c0-2.206 1.794-4 4-4s4 1.794 4 4z"/><path d="m24 5c-.552 0-1-.448-1-1v-2c0-.552.448-1 1-1s1 .448 1 1v2c0 .552-.448 1-1 1z"/><path d="m13.999 33c-.204 0-.411-.063-.588-.192-.446-.325-.544-.951-.218-1.397 1.003-1.375 1.091-3.94 1.185-6.657.19-5.525.426-12.401 8.343-14.713.528-.155 1.086.149 1.24.68.155.53-.149 1.085-.68 1.24-6.528 1.907-6.719 7.476-6.905 12.862-.104 3.033-.203 5.897-1.568 7.768-.196.267-.5.409-.809.409z"/></g></svg>