<svg id="wallet-check" xmlns="http://www.w3.org/2000/svg" width="46" height="46" viewBox="0 0 46 46">
  <defs>
    <style>
      .cls-1 {
        fill: #fff;
      }

      .cls-1, .cls-2 {
        fill-rule: evenodd;
      }

      .cls-2 {
        fill: #2ca9b7;
      }
    </style>
  </defs>
  <path id="Path" class="cls-1" d="M935.5,1061h-23a3.006,3.006,0,0,1-3-3v-30.43a3.006,3.006,0,0,1,2.377-2.93l31.035-6.58A3,3,0,0,1,946.5,1021v5.08a1,1,0,0,1-2,0V1021a0.979,0.979,0,0,0-.364-0.77,1.024,1.024,0,0,0-.826-0.21l-31.018,6.57a1.008,1.008,0,0,0-.792.98V1058a1,1,0,0,0,1,1h23A1,1,0,0,1,935.5,1061Z" transform="translate(-909.5 -1018)"/>
  <path id="Path-2" data-name="Path" class="cls-1" d="M952.5,1046a1,1,0,0,1-1-1v-15.92a1,1,0,0,0-1-1h-39a1,1,0,0,1,0-2h39a3,3,0,0,1,3,3V1045A1,1,0,0,1,952.5,1046Z" transform="translate(-909.5 -1018)"/>
  <path id="Composite_Path" data-name="Composite Path" class="cls-2" d="M943.5,1064a12,12,0,1,1,12-12A12.011,12.011,0,0,1,943.5,1064Zm0-22a10,10,0,1,0,10,10A10.014,10.014,0,0,0,943.5,1042Z" transform="translate(-909.5 -1018)"/>
  <path id="Path-3" data-name="Path" class="cls-2" d="M941.454,1057.37l-3.661-3.66a1,1,0,0,1,1.414-1.42l2.339,2.34,7.3-6.38a1,1,0,1,1,1.316,1.5Z" transform="translate(-909.5 -1018)"/>
</svg>
