<?xml version="1.0" encoding="UTF-8" standalone="no"?>
<!DOCTYPE svg PUBLIC "-//W3C//DTD SVG 1.1//EN" "http://www.w3.org/Graphics/SVG/1.1/DTD/svg11.dtd">
<svg width="100%" height="100%" viewBox="0 0 77 66" version="1.1" xmlns="http://www.w3.org/2000/svg" xmlns:xlink="http://www.w3.org/1999/xlink" xml:space="preserve" xmlns:serif="http://www.serif.com/" style="fill-rule:evenodd;clip-rule:evenodd;stroke-linejoin:round;stroke-miterlimit:2;">
    <g transform="matrix(1,0,0,1,-1.77636e-15,-5.61)">
        <path d="M72.325,33.234L72.325,30.287C72.325,24.898 68.627,20.368 63.639,19.07L63.63,14.211C63.63,9.469 59.771,5.61 55.027,5.61L54.572,5.61L14.31,18.1C13.393,18.153 12.523,18.365 11.706,18.684L11.601,18.684C5.205,18.684 0,23.889 0,30.287L0,59.091C0,65.488 5.204,70.694 11.601,70.694L60.724,70.694C67.12,70.694 72.325,65.489 72.325,59.091L72.325,55.26C74.648,54.361 76.304,52.109 76.304,49.471L76.304,39.021C76.303,36.385 74.648,34.133 72.325,33.234ZM70.303,49.47C70.303,49.588 70.21,49.681 70.092,49.681L53.851,49.681C53.733,49.681 53.641,49.588 53.641,49.47L53.641,39.021C53.641,38.906 53.735,38.812 53.851,38.812L70.092,38.812C70.208,38.812 70.303,38.906 70.303,39.021L70.303,49.47ZM55.398,11.637C56.659,11.817 57.63,12.903 57.63,14.216L57.638,18.685L32.679,18.685L55.398,11.637ZM60.724,64.693L11.602,64.693C8.509,64.693 6.001,62.184 6.001,59.09L6.001,30.287C6.001,27.192 8.509,24.684 11.602,24.684L60.724,24.684C63.818,24.684 66.325,27.192 66.325,30.287L66.325,32.812L53.851,32.812C50.427,32.812 47.641,35.597 47.641,39.021L47.641,49.47C47.641,52.895 50.427,55.681 53.851,55.681L66.325,55.681L66.325,59.091C66.325,62.184 63.818,64.693 60.724,64.693Z" style="fill:rgb(122,130,148);fill-rule:nonzero;"/>
    </g>
</svg>
