<?xml version="1.0" encoding="UTF-8" standalone="no"?>
<!DOCTYPE svg PUBLIC "-//W3C//DTD SVG 1.1//EN" "http://www.w3.org/Graphics/SVG/1.1/DTD/svg11.dtd">
<svg width="100%" height="100%" viewBox="0 0 46 43" version="1.1" xmlns="http://www.w3.org/2000/svg" xmlns:xlink="http://www.w3.org/1999/xlink" xml:space="preserve" xmlns:serif="http://www.serif.com/" style="fill-rule:evenodd;clip-rule:evenodd;stroke-linejoin:round;stroke-miterlimit:2;">
    <g transform="matrix(1,0,0,1,-2,-4.03735)">
        <path d="M43,47L5,47C3.3,47 2,45.7 2,44L2,13.6C2,12.2 3,11 4.4,10.7L35.4,4.1C36.3,3.9 37.2,4.2 37.9,4.7C38.6,5.3 39,6.1 39,7L39,12.1C39,12.7 38.6,13.1 38,13.1C37.4,13.1 37,12.7 37,12.1L37,7C37,6.6 36.8,6.3 36.6,6.2C36.5,6.1 36.2,5.9 35.8,6L4.8,12.6C4.3,12.7 4,13.1 4,13.6L4,44C4,44.6 4.4,45 5,45L43,45C43.6,45 44,44.6 44,44L44,34C44,33.4 44.4,33 45,33C45.6,33 46,33.4 46,34L46,44C46,45.7 44.7,47 43,47Z" style="fill:rgb(1,0,42);fill-rule:nonzero;"/>
        <path d="M45,25C44.4,25 44,24.6 44,24L44,15.1C44,14.5 43.6,14.1 43,14.1L4,14.1C3.4,14.1 3,13.7 3,13.1C3,12.5 3.4,12.1 4,12.1L43,12.1C44.7,12.1 46,13.4 46,15.1L46,24C46,24.6 45.6,25 45,25Z" style="fill:rgb(1,0,42);fill-rule:nonzero;"/>
        <path d="M45,35L33,35C31.3,35 30,33.7 30,32L30,26C30,24.3 31.3,23 33,23L45,23C46.7,23 48,24.3 48,26L48,32C48,33.7 46.7,35 45,35ZM33,25C32.4,25 32,25.4 32,26L32,32C32,32.6 32.4,33 33,33L45,33C45.6,33 46,32.6 46,32L46,26C46,25.4 45.6,25 45,25L33,25Z" style="fill:rgb(1,0,42);fill-rule:nonzero;"/>
        <path d="M37,32C35.3,32 34,30.7 34,29C34,27.3 35.3,26 37,26C38.7,26 40,27.3 40,29C40,30.7 38.7,32 37,32ZM37,28C36.4,28 36,28.4 36,29C36,29.6 36.4,30 37,30C37.6,30 38,29.6 38,29C38,28.4 37.6,28 37,28Z" style="fill:rgb(1,0,42);fill-rule:nonzero;"/>
    </g>
</svg>
