<svg clip-rule="evenodd" fill-rule="evenodd" stroke-linejoin="round" stroke-miterlimit="2" viewBox="0 0 63 22" xmlns="http://www.w3.org/2000/svg"><path d="m46.812 11.279v8.734c-.001.024.008.048.025.065s.041.027.065.027h3.047c.051-.001.091-.042.09-.092v-8.762c-.024-1.22.444-2.399 1.302-3.275.857-.877 2.032-1.38 3.265-1.396 2.478.085 4.432 2.116 4.396 4.57v8.859c-.001.024.008.047.025.065.017.017.04.027.064.028h3.048c.024-.001.047-.011.064-.028.017-.018.026-.041.025-.065v-8.859c.031-2.076-.781-4.078-2.255-5.556-1.474-1.477-3.486-2.307-5.584-2.303-4.299.185-7.663 3.731-7.577 7.988zm-46.022 9.586c-.087-.005-.168-.044-.226-.109-.058-.064-.087-.148-.082-.234v-12.656c-.006-.086.024-.17.082-.235.058-.064.139-.103.226-.108h2.476c.087.005.169.044.227.108.058.065.087.149.082.235v12.656c.005.086-.025.17-.083.234-.057.065-.139.104-.226.109zm2.269-14.921c-.823.343-1.773.161-2.407-.462-.634-.622-.826-1.561-.486-2.378s1.145-1.35 2.038-1.35c.582-.003 1.141.224 1.554.63.413.405.647.957.649 1.533.007.883-.525 1.684-1.348 2.027zm18.187.631c.05 0 .09-.04.091-.09v-3.108c0-.051-.041-.092-.091-.093h-5.262c-4.649-.006-8.451 3.667-8.556 8.267-.049 2.244.814 4.414 2.397 6.023 1.583 1.608 3.752 2.52 6.021 2.531h5.403c.051-.001.091-.043.091-.093v-3.106c0-.024-.01-.047-.027-.065-.017-.017-.04-.026-.064-.027h-5.403c-1.39-.006-2.719-.569-3.684-1.56s-1.484-2.326-1.438-3.701c.101-2.783 2.415-4.985 5.229-4.975zm21.852-1.398c-1.155-.027-2.073-.968-2.06-2.111s.952-2.064 2.107-2.066c.571.009 1.114.242 1.511.649.396.406.613.952.602 1.516-.042 1.143-1.005 2.039-2.16 2.012zm-17.377 17.822c-1.156-.026-2.075-.968-2.061-2.112.013-1.145.955-2.065 2.111-2.065 1.185.022 2.129.989 2.109 2.162-.041 1.144-1.003 2.042-2.159 2.015zm3.757-7.595c-.634-.997-.97-2.15-.969-3.328-.055-3.309 2.607-6.038 5.951-6.102 1.157.002 2.286.348 3.241.993l2.298-2.355c-1.575-1.245-3.53-1.924-5.546-1.926-5.151.091-9.251 4.297-9.158 9.394-.004 2.044.655 4.036 1.88 5.682zm9.961-6.656c.636.996.973 2.15.971 3.328.054 3.311-2.611 6.041-5.957 6.1-1.157-.002-2.286-.347-3.242-.993l-2.297 2.356c1.573 1.244 3.525 1.924 5.539 1.93 2.473-.044 4.828-1.058 6.546-2.82s2.658-4.127 2.614-6.575c.004-2.044-.654-4.036-1.879-5.683z" fill="#fff" transform="translate(0 -1)"/></svg>