<svg clip-rule="evenodd" fill-rule="evenodd" stroke-linejoin="round" stroke-miterlimit="2" viewBox="0 0 22 22" xmlns="http://www.w3.org/2000/svg"><path d="m43.098 5.177c-1.155-.027-2.073-.968-2.06-2.111s.952-2.064 2.107-2.066c.571.009 1.114.242 1.511.649.396.406.613.952.602 1.516-.042 1.143-1.005 2.039-2.16 2.012zm-17.377 17.822c-1.156-.026-2.075-.968-2.061-2.112.013-1.145.955-2.065 2.111-2.065 1.185.022 2.129.989 2.109 2.162-.041 1.144-1.003 2.042-2.159 2.015zm3.757-7.595c-.634-.997-.97-2.15-.969-3.328-.055-3.309 2.607-6.038 5.951-6.102 1.157.002 2.286.348 3.241.993l2.298-2.355c-1.575-1.245-3.53-1.924-5.546-1.926-5.151.091-9.251 4.297-9.158 9.394-.004 2.044.655 4.036 1.88 5.682zm9.961-6.656c.636.996.973 2.15.971 3.328.054 3.311-2.611 6.041-5.957 6.1-1.157-.002-2.286-.347-3.242-.993l-2.297 2.356c1.573 1.244 3.525 1.924 5.539 1.93 2.473-.044 4.828-1.058 6.546-2.82s2.658-4.127 2.614-6.575c.004-2.044-.654-4.036-1.879-5.683z" fill="#00b8cc" transform="translate(-23.659842 -1)"/></svg>