<svg clip-rule="evenodd" fill-rule="evenodd" stroke-linejoin="round" stroke-miterlimit="2" viewBox="0 0 211 65" xmlns="http://www.w3.org/2000/svg" xmlns:xlink="http://www.w3.org/1999/xlink"><radialGradient id="a" cx="0" cy="0" gradientTransform="matrix(201.5 0 0 194.5 685.5 499.5)" gradientUnits="userSpaceOnUse" r="1"><stop offset="0" stop-color="#9d4df1"/><stop offset=".09" stop-color="#518dda"/><stop offset=".21" stop-color="#15c1c8"/><stop offset=".63" stop-color="#00d3c2"/><stop offset="1" stop-color="#9d4df1"/></radialGradient><g transform="translate(-.000057 -.000022)"><path d="m160.858 22.339c2.668-2.772 6.415-4.498 10.562-4.498 5.258 0 9.872 2.774 12.461 6.937 2.586-4.163 7.203-6.937 12.46-6.937 8.06 0 14.609 6.517 14.659 14.564v14.754h-4.398v-14.659c0-5.663-4.597-10.261-10.261-10.261s-10.261 4.598-10.261 10.261v14.659h-4.398v-14.659c0-5.663-4.598-10.261-10.262-10.261-3.447 0-6.5 1.704-8.361 4.315-.544-1.512-1.288-2.927-2.201-4.215zm-64.199-4.498c8.092 0 14.659 6.568 14.659 14.659 0 8.092-6.567 14.659-14.659 14.659s-14.659-6.567-14.659-14.659c0-8.091 6.567-14.659 14.659-14.659zm14.358 4.498c2.668-2.772 6.415-4.498 10.563-4.498 5.257 0 9.872 2.774 12.46 6.937 2.587-4.163 7.202-6.937 12.46-6.937 8.059 0 14.608 6.517 14.659 14.564v.095 14.659h-4.398v-14.659c0-5.663-4.598-10.261-10.261-10.261s-10.261 4.598-10.261 10.261v14.659h-4.398v-14.659c0-5.663-4.598-10.261-10.261-10.261-3.448 0-6.501 1.704-8.362 4.315-.544-1.512-1.288-2.927-2.201-4.215zm-14.358-.1c5.664 0 10.261 4.598 10.261 10.261s-4.597 10.261-10.261 10.261-10.261-4.598-10.261-10.261 4.597-10.261 10.261-10.261z" fill="#fff"/><path d="m699.5 661c9.107 0 16.5 7.393 16.5 16.5s-7.393 16.5-16.5 16.5-16.5-7.393-16.5-16.5 7.393-16.5 16.5-16.5zm-70.5-6c8.279 0 15 6.721 15 15s-6.721 15-15 15-15-6.721-15-15 6.721-15 15-15zm138.5-15c9.659 0 17.5 7.841 17.5 17.5s-7.841 17.5-17.5 17.5-17.5-7.841-17.5-17.5 7.841-17.5 17.5-17.5zm-97.5-29c12.142 0 22 9.858 22 22s-9.858 22-22 22-22-9.858-22-22 9.858-22 22-22zm-104 11c7.727 0 14 6.273 14 14s-6.273 14-14 14-14-6.273-14-14 6.273-14 14-14zm159-17c12.142 0 22 9.858 22 22s-9.858 22-22 22-22-9.858-22-22 9.858-22 22-22zm-107-10c12.142 0 22 9.858 22 22s-9.858 22-22 22-22-9.858-22-22 9.858-22 22-22zm204 0c11.038 0 20 8.962 20 20s-8.962 20-20 20-20-8.962-20-20 8.962-20 20-20zm-50-13.5c12.142 0 22 9.858 22 22s-9.858 22-22 22-22-9.858-22-22 9.858-22 22-22zm-198-20.5c12.142 0 22 9.858 22 22s-9.858 22-22 22-22-9.858-22-22 9.858-22 22-22zm-55.5 6c6.899 0 12.5 5.601 12.5 12.5s-5.601 12.5-12.5 12.5-12.5-5.601-12.5-12.5 5.601-12.5 12.5-12.5zm286.5-26.5c12.142 0 22 9.858 22 22s-9.858 22-22 22-22-9.858-22-22 9.858-22 22-22zm52-4.5c11.038 0 20 8.962 20 20s-8.962 20-20 20-20-8.962-20-20 8.962-20 20-20zm-312-24c12.142 0 22 9.858 22 22s-9.858 22-22 22-22-9.858-22-22 9.858-22 22-22zm51.82 17.82c4.967 0 9 4.033 9 9s-4.033 9-9 9-9-4.033-9-9 4.033-9 9-9zm224.68-35.32c11.314 0 20.5 9.186 20.5 20.5s-9.186 20.5-20.5 20.5-20.5-9.186-20.5-20.5 9.186-20.5 20.5-20.5zm-326.5 4.5c6.071 0 11 4.929 11 11s-4.929 11-11 11-11-4.929-11-11 4.929-11 11-11zm88-9c6.071 0 11 4.929 11 11s-4.929 11-11 11-11-4.929-11-11 4.929-11 11-11zm284-19c11.038 0 20 8.962 20 20s-8.962 20-20 20-20-8.962-20-20 8.962-20 20-20zm-330-16c11.866 0 21.5 9.634 21.5 21.5s-9.634 21.5-21.5 21.5-21.5-9.634-21.5-21.5 9.634-21.5 21.5-21.5zm281.5-10c11.314 0 20.5 9.186 20.5 20.5s-9.186 20.5-20.5 20.5-20.5-9.186-20.5-20.5 9.186-20.5 20.5-20.5zm-234.5 2c6.899 0 12.5 5.601 12.5 12.5s-5.601 12.5-12.5 12.5-12.5-5.601-12.5-12.5 5.601-12.5 12.5-12.5zm268-41c11.59 0 21 9.41 21 21s-9.41 21-21 21-21-9.41-21-21 9.41-21 21-21zm-352.5 19c5.243 0 9.5 4.257 9.5 9.5s-4.257 9.5-9.5 9.5-9.5-4.257-9.5-9.5 4.257-9.5 9.5-9.5zm299.5-23c10.762 0 19.5 8.738 19.5 19.5s-8.738 19.5-19.5 19.5-19.5-8.738-19.5-19.5 8.738-19.5 19.5-19.5zm-248-5c11.866 0 21.5 9.634 21.5 21.5s-9.634 21.5-21.5 21.5-21.5-9.634-21.5-21.5 9.634-21.5 21.5-21.5zm49.5 9.5c8.003 0 14.5 6.497 14.5 14.5s-6.497 14.5-14.5 14.5-14.5-6.497-14.5-14.5 6.497-14.5 14.5-14.5zm162.5-37c10.486 0 19 8.514 19 19s-8.514 19-19 19-19-8.514-19-19 8.514-19 19-19zm-131 5.5c8.555 0 15.5 6.945 15.5 15.5s-6.945 15.5-15.5 15.5-15.5-6.945-15.5-15.5 6.945-15.5 15.5-15.5zm182.5-23c11.866 0 21.5 9.634 21.5 21.5s-9.634 21.5-21.5 21.5-21.5-9.634-21.5-21.5 9.634-21.5 21.5-21.5zm-228-3c11.866 0 21.5 9.634 21.5 21.5s-9.634 21.5-21.5 21.5-21.5-9.634-21.5-21.5 9.634-21.5 21.5-21.5zm87.5 7c9.383 0 17 7.617 17 17s-7.617 17-17 17-17-7.617-17-17 7.617-17 17-17zm46.5-2c9.934 0 18 8.066 18 18s-8.066 18-18 18-18-8.066-18-18 8.066-18 18-18zm-189 5c4.139 0 7.5 3.361 7.5 7.5s-3.361 7.5-7.5 7.5-7.5-3.361-7.5-7.5 3.361-7.5 7.5-7.5zm229-43c11.866 0 21.5 9.634 21.5 21.5s-9.634 21.5-21.5 21.5-21.5-9.634-21.5-21.5 9.634-21.5 21.5-21.5zm-123 0c11.866 0 21.5 9.634 21.5 21.5s-9.634 21.5-21.5 21.5-21.5-9.634-21.5-21.5 9.634-21.5 21.5-21.5zm62-11c11.866 0 21.5 9.634 21.5 21.5s-9.634 21.5-21.5 21.5-21.5-9.634-21.5-21.5 9.634-21.5 21.5-21.5z" fill="url(#a)" transform="matrix(.167095 0 0 .167095 -80.8739 -50.964)"/></g></svg>