<svg clip-rule="evenodd" fill-rule="evenodd" stroke-linejoin="round" stroke-miterlimit="2" viewBox="0 0 108 99" xmlns="http://www.w3.org/2000/svg"><g fill="#f5f3ff" fill-rule="nonzero" transform="scale(1.3542)"><path d="m46.55 56.16c-3.85 4.575-8.457 8.455-13.62 11.47s-28.32-14.75-28.32-52.49c15.24-.74 26.1-7.6 28.32-9.82 1.32 1.33 5.71 4.3 12.28 6.64v-4.35c-7.39-2.81-10.96-6.28-12.28-7.61-2.22 2.21-10.68 10.45-32.83 11.49-2.21 44.56 32.83 61.35 32.83 61.35 7.593-4.126 14.228-9.81 19.47-16.68z"/><path d="m79.05 35.22v-7.29h-2.96v-10.37h2.2v-3.36h-3.69v2.85h-3.58v-.85h-3.68v3.36h3.68v-2h4.56v10.37h-4.54v1.63h-5.56v-5.41h-3.72v-10.56h1.71v-4.94h-5.58v4.94h3.36v10.56h-2.85v2.19h-5.44v-4.21h5.07v-8.53h-7.15v-4.97h1.89v-4.41h-4.98v4.41h2.58v4.97h-1.73v7.55h-7.31v-2.61h5.87v-5.66h-6.38v8.27h-4.86v6.69h7.35v-6.18h5.33v.47h3.81v6.09h-1.12v2.2h2.48v-2.2h-.85v-1.37h5.44v3.55h7.08v-.33h5.56v4.85l-.63.96h-4.11v.36h-3.93v-1.25h-3.97v3.11h-3.39v-6.07h-10.23v9.26l-1 .99h-2.69v2.61h2.98v-2.16l1.38-1.38h4.76v5.53h-3.94v4.07h4.46v-9.6h4.28v-2.74h7.36v-1.85h3.93v3.43h.87v3.44h-4.57v3.83h-7.54v5.9h6.72v-5.38h.82v.13h5.09v-7.92h3.34v-4.31h-.01l.43-.66z"/></g></svg>