<?xml version="1.0" standalone="no"?>
<!DOCTYPE svg PUBLIC "-//W3C//DTD SVG 20010904//EN"
 "http://www.w3.org/TR/2001/REC-SVG-20010904/DTD/svg10.dtd">
<svg version="1.0" xmlns="http://www.w3.org/2000/svg"
 width="806.000000pt" height="806.000000pt" viewBox="0 0 806.000000 806.000000"
 preserveAspectRatio="xMidYMid meet">
<metadata>
Created by potrace 1.11, written by Peter Selinger 2001-2013
</metadata>
<g transform="translate(0.000000,806.000000) scale(0.100000,-0.100000)"
fill="#000000" stroke="none">
<path d="M4192 7903 c-98 -25 -206 -110 -256 -203 -84 -155 -69 -340 41 -478
31 -40 106 -105 123 -107 3 0 15 -7 28 -14 62 -34 208 -48 292 -27 66 16 165
77 209 130 9 10 21 24 27 30 43 45 86 183 83 266 -10 282 -270 474 -547 403z"/>
<path d="M2998 7694 c-3 -3 -17 -6 -31 -8 -46 -5 -151 -64 -199 -111 -81 -82
-128 -197 -129 -320 0 -5 2 -22 5 -37 3 -16 8 -40 11 -55 9 -52 65 -150 112
-197 46 -45 139 -99 193 -112 14 -4 58 -8 98 -10 167 -7 318 81 392 231 41 81
44 96 44 205 -1 85 -4 102 -33 164 -42 93 -124 175 -216 217 -56 25 -85 32
-155 35 -48 2 -89 1 -92 -2z"/>
<path d="M5390 7674 c-116 -39 -191 -107 -247 -224 -33 -66 -37 -84 -39 -162
-2 -102 15 -167 62 -243 120 -192 366 -259 564 -154 67 36 94 60 142 122 51
67 91 181 89 252 -2 77 -37 204 -61 225 -3 3 -17 21 -30 40 -14 19 -35 43 -47
53 -13 10 -30 25 -37 33 -8 8 -19 14 -25 14 -6 0 -11 3 -11 8 0 11 -78 40
-135 51 -83 15 -146 11 -225 -15z"/>
<path d="M1960 7029 c-19 -5 -43 -11 -53 -14 -9 -2 -36 -14 -59 -27 -107 -58
-173 -141 -210 -262 -28 -93 -21 -198 20 -288 16 -34 38 -73 48 -85 11 -12 26
-30 35 -40 33 -38 74 -67 138 -96 57 -26 78 -30 156 -30 50 0 102 2 117 5 37
6 148 63 178 91 77 69 134 177 144 271 4 31 7 60 7 64 1 4 0 9 -1 12 -1 3 -4
25 -6 49 -9 80 -67 186 -139 253 -16 16 -63 44 -102 64 -61 30 -86 36 -155 39
-46 2 -99 0 -118 -6z"/>
<path d="M6480 6958 c-186 -58 -303 -225 -295 -419 3 -92 7 -109 44 -184 104
-210 368 -294 582 -184 36 18 135 108 164 150 41 58 63 147 60 246 -2 74 -7
99 -34 157 -17 37 -49 87 -71 109 -22 23 -40 45 -40 49 0 5 -6 8 -13 8 -8 0
-22 9 -32 20 -9 10 -20 19 -24 18 -3 -1 -24 7 -46 17 -53 24 -57 25 -150 30
-61 3 -95 -1 -145 -17z"/>
<path d="M4655 6933 c-21 -4 -48 -15 -103 -42 -50 -24 -119 -99 -149 -161 -53
-112 -36 -264 40 -366 57 -74 151 -131 232 -139 17 -1 32 -4 35 -5 3 -1 8 -2
12 -1 4 0 28 3 54 6 63 6 161 54 207 101 70 70 102 148 104 248 2 119 -48 221
-149 301 -59 47 -194 75 -283 58z"/>
<path d="M3810 6902 c0 -4 -21 -7 -48 -8 -56 0 -143 -38 -187 -81 -41 -40 -75
-81 -75 -92 0 -4 -8 -23 -17 -42 -25 -47 -24 -177 0 -241 36 -94 143 -192 222
-204 6 -1 12 -3 15 -4 3 -1 26 -3 51 -5 25 -1 51 -5 57 -9 7 -4 12 -3 12 1 0
5 12 10 28 11 44 4 127 49 173 95 61 61 92 134 95 229 2 43 -1 80 -6 83 -6 4
-8 10 -5 14 8 14 -42 105 -79 143 -20 21 -55 48 -79 62 -43 25 -157 59 -157
48z"/>
<path d="M883 6823 c-55 -31 -78 -70 -77 -133 1 -110 67 -157 198 -142 21 3
71 55 85 90 50 121 -91 248 -206 185z"/>
<path d="M5465 6611 c-68 -23 -113 -51 -161 -103 -42 -45 -94 -141 -94 -174 0
-10 -4 -26 -9 -34 -6 -8 -7 -18 -4 -23 3 -5 6 -32 8 -60 6 -146 120 -286 268
-331 60 -18 161 -17 212 1 22 8 46 16 53 17 7 1 36 19 65 40 189 137 207 421
37 580 -44 41 -112 81 -160 94 -48 12 -169 9 -215 -7z"/>
<path d="M2866 6504 c-82 -26 -138 -74 -183 -159 -23 -43 -27 -62 -27 -135 -1
-70 3 -93 23 -129 44 -84 122 -151 194 -167 99 -23 198 -7 267 45 42 31 79 72
80 87 0 6 6 17 14 23 20 17 39 120 32 179 -11 100 -79 195 -173 242 -58 29
-160 35 -227 14z"/>
<path d="M1229 6066 c-192 -53 -323 -230 -315 -424 5 -102 11 -126 51 -197 30
-53 97 -135 110 -135 2 0 21 -11 41 -25 121 -82 310 -82 449 -1 82 48 171 169
191 258 50 226 -66 440 -279 516 -56 19 -191 23 -248 8z"/>
<path d="M6180 5960 c-25 -9 -59 -24 -77 -33 -40 -21 -113 -94 -133 -133 -8
-16 -18 -31 -21 -34 -15 -12 -37 -110 -37 -169 0 -149 77 -276 210 -344 73
-37 75 -38 148 -44 300 -26 514 298 375 566 -29 57 -116 151 -140 151 -6 0
-16 5 -23 12 -41 41 -221 58 -302 28z"/>
<path d="M7228 5876 c-36 -13 -81 -34 -100 -46 -48 -33 -108 -92 -108 -106 0
-7 -3 -14 -7 -16 -17 -7 -52 -86 -62 -140 -12 -56 -9 -166 4 -203 58 -153 153
-248 292 -288 50 -15 166 -16 223 -3 123 28 262 167 297 298 15 56 10 182 -9
239 -74 219 -315 340 -530 265z"/>
<path d="M2260 5883 c-41 -13 -104 -50 -134 -79 -58 -56 -81 -117 -80 -210 0
-70 4 -88 29 -130 28 -49 37 -58 91 -102 98 -78 272 -62 366 33 59 60 83 118
82 200 -1 39 -3 77 -6 85 -38 123 -141 203 -268 206 -36 1 -72 0 -80 -3z"/>
<path d="M255 5512 c-110 -36 -166 -166 -114 -268 65 -126 249 -135 329 -16
35 53 36 152 0 202 -28 41 -53 60 -95 77 -33 13 -88 15 -120 5z"/>
<path d="M6660 5120 c0 -6 -4 -9 -9 -6 -14 9 -120 -23 -166 -50 -150 -88 -234
-275 -195 -435 6 -24 13 -52 15 -63 6 -27 63 -113 98 -148 39 -38 98 -76 151
-95 88 -32 238 -22 319 20 33 18 117 79 117 86 0 4 11 18 24 32 24 26 63 101
73 143 11 41 11 166 1 203 -44 165 -192 296 -349 308 -32 2 -64 7 -69 10 -6 3
-10 1 -10 -5z"/>
<path d="M1912 5064 c-48 -18 -107 -72 -137 -124 -25 -46 -29 -146 -7 -201 25
-65 88 -123 160 -147 34 -11 62 -16 62 -11 0 6 9 8 20 4 20 -6 96 12 118 30
107 81 142 185 106 305 -8 26 -8 27 -52 77 -61 71 -178 101 -270 67z"/>
<path d="M934 4901 c-141 -47 -234 -141 -284 -285 -15 -44 -19 -77 -16 -145 3
-76 8 -97 39 -162 78 -162 229 -253 405 -244 94 5 93 4 165 37 154 72 259 251
244 417 -7 78 -13 97 -47 167 -37 75 -107 145 -179 180 -31 15 -65 32 -76 37
-35 18 -195 16 -251 -2z"/>
<path d="M7535 4578 c-104 -36 -184 -104 -230 -196 -34 -69 -44 -115 -42 -195
3 -103 37 -184 107 -257 87 -89 153 -120 272 -126 127 -6 241 43 322 137 35
41 74 113 79 147 1 9 5 22 8 27 14 23 5 162 -14 215 -29 82 -93 164 -167 211
-90 57 -230 73 -335 37z"/>
<path d="M1895 4201 c-90 -41 -134 -111 -131 -206 2 -65 20 -109 63 -151 78
-78 216 -82 298 -7 36 32 66 81 68 113 1 16 6 30 10 30 5 0 5 5 2 10 -4 6 -9
27 -11 46 -8 66 -53 127 -117 160 -47 25 -134 27 -182 5z"/>
<path d="M6670 4123 c-14 -2 -41 -11 -60 -19 -134 -58 -207 -134 -250 -259
-20 -57 -21 -224 -2 -248 5 -6 13 -23 17 -37 29 -101 160 -210 286 -239 96
-22 217 -3 301 49 44 26 128 110 128 126 0 8 4 14 9 14 9 0 39 67 47 105 16
73 17 81 10 150 -22 233 -246 399 -486 358z"/>
<path d="M180 4037 c-3 -3 -18 -8 -32 -11 -33 -6 -75 -38 -114 -88 -36 -45
-43 -168 -12 -206 7 -8 11 -16 8 -16 -2 -1 7 -16 20 -34 35 -47 113 -82 175
-79 64 4 71 6 122 39 28 19 50 45 68 83 24 48 27 63 22 116 -11 108 -86 184
-194 195 -32 3 -60 4 -63 1z"/>
<path d="M1110 3766 c-147 -41 -257 -146 -308 -291 -16 -48 -20 -78 -17 -150
4 -91 13 -125 53 -202 44 -85 157 -175 257 -205 74 -22 237 -16 280 10 6 4 15
7 21 8 23 4 96 56 140 102 132 136 158 328 68 515 -10 20 -21 37 -26 37 -4 0
-8 5 -8 12 0 31 -125 123 -210 155 -49 19 -195 24 -250 9z"/>
<path d="M2208 3417 c-50 -12 -106 -67 -121 -119 -14 -48 -14 -49 -3 -98 35
-152 250 -183 326 -47 79 140 -45 302 -202 264z"/>
<path d="M7355 3285 c-120 -38 -203 -109 -256 -219 -74 -153 -34 -348 93 -463
32 -28 105 -72 118 -70 3 0 16 -6 30 -13 38 -20 164 -22 229 -4 154 45 269
177 285 329 2 17 5 35 6 40 1 6 2 12 0 15 -1 3 -3 25 -5 50 -3 42 -39 149 -53
160 -4 3 -18 22 -32 42 -14 21 -28 38 -32 38 -4 0 -13 6 -20 13 -25 25 -73 54
-118 72 -56 22 -190 28 -245 10z"/>
<path d="M6320 3199 c-19 -5 -53 -17 -75 -26 -43 -19 -145 -89 -145 -101 0 -4
-12 -21 -28 -37 -61 -68 -91 -163 -87 -275 3 -102 6 -112 41 -185 49 -100 178
-207 279 -231 38 -9 197 -13 210 -5 6 3 18 7 28 8 9 2 43 16 75 32 218 111
302 375 189 598 -50 98 -165 189 -276 218 -57 15 -165 17 -211 4z"/>
<path d="M1682 2783 c-110 -28 -218 -118 -273 -224 -36 -71 -41 -95 -44 -193
-3 -100 15 -163 72 -249 97 -147 280 -223 449 -186 32 7 62 12 67 11 4 -1 7 3
7 8 0 6 7 10 16 10 8 0 36 14 62 32 136 92 210 239 198 390 -7 86 -13 112 -47
180 -90 180 -303 273 -507 221z"/>
<path d="M594 2660 c-208 -91 -198 -392 15 -466 48 -17 148 -11 190 11 176 92
186 335 19 438 -61 38 -160 45 -224 17z"/>
<path d="M5644 2374 c-122 -32 -233 -127 -283 -243 -22 -52 -25 -63 -37 -125
-2 -16 -7 -33 -10 -37 -2 -4 -1 -10 4 -13 5 -3 7 -20 6 -38 -3 -44 40 -171 73
-217 27 -35 70 -80 110 -112 11 -9 51 -29 89 -45 54 -22 87 -28 153 -30 90 -2
140 10 217 49 53 27 157 120 147 131 -3 3 -2 6 4 6 5 0 24 31 41 68 52 112 53
239 4 359 -9 24 -20 43 -24 43 -5 0 -8 6 -8 13 0 13 -75 95 -116 127 -27 21
-111 58 -159 69 -55 13 -150 11 -211 -5z"/>
<path d="M2568 2104 c-21 -7 -38 -11 -38 -9 0 5 -51 -23 -98 -52 -45 -29 -112
-105 -139 -158 -39 -75 -53 -139 -49 -224 5 -95 24 -155 71 -226 39 -59 140
-145 169 -145 9 0 16 -4 16 -10 0 -5 8 -10 18 -10 10 0 22 -3 26 -7 10 -11 34
-14 117 -18 123 -6 229 31 311 109 44 41 108 128 112 149 1 7 4 17 8 22 3 6 9
26 14 45 7 30 9 48 16 95 2 16 -12 107 -23 146 -5 20 -21 58 -35 83 -26 47
-117 146 -133 146 -5 0 -16 6 -23 13 -50 50 -257 81 -340 51z"/>
<path d="M6646 2103 c-103 -31 -192 -106 -242 -205 -33 -66 -36 -78 -39 -172
-4 -125 30 -204 125 -296 77 -74 174 -111 295 -112 32 0 134 32 173 54 88 50
184 186 196 278 3 19 5 37 7 40 1 3 1 9 0 14 -1 6 -4 33 -6 62 -2 29 -8 61
-14 73 -7 12 -9 21 -7 21 3 0 -3 15 -14 33 -11 17 -24 41 -29 52 -19 42 -145
142 -190 150 -9 2 -16 4 -16 5 0 5 -51 12 -115 15 -46 2 -94 -3 -124 -12z"/>
<path d="M4748 1915 c-3 -3 -19 -7 -35 -9 -36 -5 -102 -37 -161 -79 -45 -32
-125 -131 -115 -141 4 -3 2 -6 -3 -6 -10 0 -28 -43 -41 -92 -8 -34 -8 -178 0
-216 20 -91 107 -209 192 -263 216 -136 518 -52 628 175 117 243 5 514 -253
614 -35 13 -202 27 -212 17z"/>
<path d="M3600 1781 c-152 -45 -272 -169 -308 -321 -15 -61 -9 -185 12 -240
10 -25 20 -53 23 -62 3 -10 9 -18 14 -18 5 0 9 -6 9 -12 0 -18 92 -118 108
-118 6 0 12 -4 12 -9 0 -11 103 -57 163 -72 62 -15 163 -6 242 21 145 50 261
197 281 355 6 43 6 43 1 95 -13 129 -77 239 -189 323 -34 25 -87 49 -143 64
-49 13 -172 10 -225 -6z"/>
<path d="M1625 1585 c-55 -13 -106 -33 -136 -51 -180 -111 -164 -386 27 -484
38 -20 62 -25 123 -25 92 1 154 28 211 93 33 37 71 117 71 147 0 46 -12 119
-24 148 -33 79 -125 149 -211 162 -21 3 -41 7 -45 9 -3 2 -10 2 -16 1z"/>
<path d="M5573 1206 c-102 -33 -176 -98 -221 -194 -23 -48 -27 -71 -27 -142 0
-76 4 -93 33 -152 38 -77 92 -130 171 -166 47 -22 70 -27 141 -27 71 0 94 5
142 27 78 36 133 89 171 167 28 58 32 75 32 151 0 71 -5 94 -26 141 -58 124
-164 196 -299 204 -47 3 -91 -1 -117 -9z"/>
<path d="M2808 904 c-16 -8 -28 -12 -28 -9 0 10 -86 -55 -110 -83 -33 -37 -61
-107 -67 -165 -20 -206 180 -371 379 -313 265 77 291 446 39 559 -58 26 -174
32 -213 11z"/>
<path d="M4234 791 c-44 -11 -124 -51 -124 -62 0 -5 -6 -9 -12 -9 -20 -1 -77
-83 -98 -141 -25 -71 -21 -175 10 -244 28 -62 106 -139 168 -167 62 -28 199
-30 252 -4 80 39 114 66 151 118 19 27 70 154 64 160 -2 2 -6 29 -8 60 -11
112 -92 225 -193 269 -53 23 -160 33 -210 20z"/>
</g>
</svg>
