<svg clip-rule="evenodd" fill-rule="evenodd" stroke-linejoin="round" stroke-miterlimit="2" viewBox="0 0 16 11" xmlns="http://www.w3.org/2000/svg" xmlns:xlink="http://www.w3.org/1999/xlink"><linearGradient id="a" gradientTransform="matrix(15.6925 0 0 10.0007 24 5.99965)" gradientUnits="userSpaceOnUse" x1="0" x2="1" y1="0" y2="0"><stop offset="0" stop-color="#00d3c2"/><stop offset="1" stop-color="#9d4df1"/></linearGradient><path d="m36.146 5-2.771-2.22c-.431-.345-.501-.975-.156-1.405.345-.432.975-.502 1.406-.155l4.692 3.758c.229.183.366.457.375.75s-.111.575-.329.772l-4.692 4.242c-.192.173-.432.258-.671.258-.273 0-.545-.111-.742-.329-.371-.41-.338-1.042.071-1.413l2.498-2.258h-11.31c-.285 0-.517-.447-.517-1s.232-1 .517-1z" fill="url(#a)" fill-rule="nonzero" transform="translate(-24 -.999303)"/></svg>