<svg clip-rule="evenodd" fill-rule="evenodd" stroke-linejoin="round" stroke-miterlimit="2" viewBox="0 0 47 46" xmlns="http://www.w3.org/2000/svg" xmlns:xlink="http://www.w3.org/1999/xlink"><linearGradient id="a" gradientTransform="matrix(47 -46 46 47 1 47)" gradientUnits="userSpaceOnUse" x1="0" x2="1" y1="0" y2="0"><stop offset="0" stop-color="#9d4df1"/><stop offset="1" stop-color="#00d3c2"/></linearGradient><path d="m25.3 47h-2.7c-1.5 0-2.7-1-3-2.5l-.4-2.1c-1.8-.4-3.5-1.2-5-2.1l-1.8 1.2c-1.2.8-2.8.7-3.8-.3l-1.9-1.9c-1-1-1.2-2.6-.3-3.8l1.2-1.8c-.9-1.6-1.6-3.3-2.1-5l-2.1-.4c-1.4-.3-2.4-1.5-2.4-3v-2.7c0-1.5 1-2.7 2.5-3l2.1-.4c.4-1.8 1.2-3.5 2.1-5l-1.2-1.8c-.8-1.2-.7-2.8.3-3.8l1.9-1.9c1-1 2.7-1.2 3.8-.3l1.8 1.2c1.6-.9 3.3-1.6 5-2.1l.4-2.1c.3-1.4 1.5-2.4 3-2.4h2.7c1.5 0 2.7 1 3 2.5l.4 2.1c1.8.4 3.5 1.2 5 2.1l1.8-1.2c1.2-.8 2.8-.7 3.8.3l1.9 1.9c1 1 1.2 2.6.3 3.8l-1.2 1.8c.9 1.6 1.6 3.3 2.1 5l2.1.4c1.4.3 2.5 1.5 2.5 3v2.7c0 1.5-1 2.7-2.5 3l-2.1.4c-.4 1.8-1.2 3.5-2.1 5l1.2 1.8c.8 1.2.7 2.8-.3 3.8l-1.9 1.9c-.6.6-1.3.9-2.1.9-.6 0-1.2-.2-1.7-.5l-1.8-1.2c-1.6.9-3.3 1.6-5 2.1l-.4 2.1c-.4 1.3-1.6 2.3-3.1 2.3zm-11-8.9c.2 0 .4.1.5.2 1.7 1.1 3.6 1.9 5.6 2.3.4.1.7.4.8.8l.5 2.8c.1.5.5.8 1 .8h2.7c.5 0 .9-.3 1-.8l.5-2.8c.1-.4.4-.7.8-.8 2-.4 3.9-1.2 5.6-2.3.3-.2.8-.2 1.1 0l2.3 1.6c.4.3.9.2 1.3-.1l1.9-1.9c.3-.3.4-.9.1-1.3l-1.6-2.3c-.2-.3-.2-.8 0-1.1 1.1-1.7 1.9-3.6 2.3-5.6.1-.4.4-.7.8-.8l2.8-.5c.5-.1.8-.5.8-1v-2.7c0-.5-.3-.9-.8-1l-2.8-.5c-.4-.1-.7-.4-.8-.8-.4-2-1.2-3.9-2.3-5.6-.2-.3-.2-.8 0-1.1l1.6-2.3c.3-.4.2-.9-.1-1.3l-1.9-1.9c-.3-.3-.9-.4-1.3-.1l-2.3 1.6c-.3.2-.8.2-1.1 0-1.7-1.1-3.6-1.9-5.6-2.3-.4-.1-.7-.4-.8-.8l-.5-2.8c-.1-.5-.5-.8-1-.8h-2.7c-.5 0-.9.3-1 .8l-.5 2.8c-.1.4-.4.7-.8.8-2 .4-3.9 1.2-5.6 2.3-.3.2-.8.2-1.1 0l-2.3-1.6c-.4-.3-.9-.2-1.3.1l-1.9 1.9c-.3.3-.4.9-.1 1.3l1.6 2.3c.2.3.2.8 0 1.1-1.1 1.7-1.9 3.6-2.3 5.6-.1.4-.4.7-.8.8l-2.8.5c-.5.1-.8.5-.8 1v2.7c0 .5.3.9.8 1l2.8.5c.4.1.7.4.8.8.4 2 1.2 3.9 2.3 5.6.2.3.2.8 0 1.1l-1.6 2.3c-.3.4-.2.9.1 1.3l1.9 1.9c.3.3.9.4 1.3.1l2.3-1.6c.2-.1.4-.2.6-.2zm9.7-5.1c-5 0-9-4-9-9s4-9 9-9 9 4 9 9-4 9-9 9zm0-16c-3.9 0-7 3.1-7 7s3.1 7 7 7 7-3.1 7-7-3.1-7-7-7z" fill="url(#a)" fill-rule="nonzero" transform="translate(-1 -1)"/></svg>