<?xml version="1.0" encoding="UTF-8" standalone="no"?>
<!DOCTYPE svg PUBLIC "-//W3C//DTD SVG 1.1//EN" "http://www.w3.org/Graphics/SVG/1.1/DTD/svg11.dtd">
<svg width="100%" height="100%" viewBox="0 0 22 22" version="1.1" xmlns="http://www.w3.org/2000/svg" xmlns:xlink="http://www.w3.org/1999/xlink" xml:space="preserve" xmlns:serif="http://www.serif.com/" style="fill-rule:evenodd;clip-rule:evenodd;stroke-linecap:round;stroke-linejoin:round;">
    <g transform="matrix(1,0,0,1,-1,-1)">
        <path d="M22,11C22,9.896 21.104,9 20,9L11,9C9.896,9 9,9.896 9,11L9,20C9,21.104 9.896,22 11,22L20,22C21.104,22 22,21.104 22,20L22,11Z" style="fill:none;stroke:rgb(122,130,148);stroke-width:2px;"/>
        <path d="M5,15L4,15C2.903,15 2,14.097 2,13L2,4C2,2.903 2.903,2 4,2L13,2C14.097,2 15,2.903 15,4L15,5" style="fill:none;fill-rule:nonzero;stroke:rgb(122,130,148);stroke-width:2px;"/>
    </g>
</svg>
