<svg clip-rule="evenodd" fill-rule="evenodd" stroke-linejoin="round" stroke-miterlimit="2" viewBox="0 0 46 46" xmlns="http://www.w3.org/2000/svg" xmlns:xlink="http://www.w3.org/1999/xlink"><linearGradient id="a" gradientTransform="matrix(46 -46 46 46 0 46)" gradientUnits="userSpaceOnUse" x1="0" x2="1" y1="0" y2="0"><stop offset="0" stop-color="#9d4df1"/><stop offset="1" stop-color="#00d3c2"/></linearGradient><path d="m43 46h-40c-1.7 0-3-1.3-3-3v-40c0-1.7 1.3-3 3-3h40c1.7 0 3 1.3 3 3v40c0 1.7-1.3 3-3 3zm1-36h-42v33c0 .6.4 1 1 1h40c.6 0 1-.4 1-1zm-26 24c-.2 0-.3 0-.5-.1-.3-.2-.5-.5-.5-.9v-14c0-.4.2-.7.5-.9s.7-.2 1 0l11 7c.3.2.5.5.5.8s-.2.7-.5.8l-11 7c-.1.2-.3.3-.5.3zm1-13.2v10.4l8.1-5.2zm25-12.8v-5c0-.6-.4-1-1-1h-40c-.6 0-1 .4-1 1v5zm-39-1.5c-.8 0-1.5-.7-1.5-1.5s.7-1.5 1.5-1.5 1.5.7 1.5 1.5-.7 1.5-1.5 1.5zm4 0c-.8 0-1.5-.7-1.5-1.5s.7-1.5 1.5-1.5 1.5.7 1.5 1.5-.7 1.5-1.5 1.5zm4 0c-.8 0-1.5-.7-1.5-1.5s.7-1.5 1.5-1.5 1.5.7 1.5 1.5-.7 1.5-1.5 1.5zm-8-2c-.3 0-.5.2-.5.5s.2.5.5.5.5-.2.5-.5-.2-.5-.5-.5zm4 0c-.3 0-.5.2-.5.5s.2.5.5.5.5-.2.5-.5-.2-.5-.5-.5zm4 0c-.3 0-.5.2-.5.5s.2.5.5.5.5-.2.5-.5-.2-.5-.5-.5z" fill="url(#a)" fill-rule="nonzero"/></svg>