<svg clip-rule="evenodd" fill-rule="evenodd" stroke-linejoin="round" stroke-miterlimit="2" viewBox="0 0 82 52" xmlns="http://www.w3.org/2000/svg"><path d="m34.05 50-25.05 16.31v-32.62zm31.9 0 25.05 16.31v-32.62zm-3.66 2.39-11.2 7.29c-.33.21-.71.32-1.09.32s-.76-.11-1.09-.32l-11.2-7.29-27.05 17.61-1.57 1.02c.49 2.82 2.95 4.98 5.91 4.98h70c2.96 0 5.42-2.15 5.91-4.98l-1.58-1.02zm-12.29 3.22 39.33-25.61 1.58-1.02c-.49-2.83-2.95-4.98-5.91-4.98h-70c-2.96 0-5.42 2.16-5.91 4.98l1.57 1.02z" fill="#fff" fill-rule="nonzero" transform="translate(-9 -24)"/></svg>