<?xml version="1.0" encoding="UTF-8" standalone="no"?>
<!DOCTYPE svg PUBLIC "-//W3C//DTD SVG 1.1//EN" "http://www.w3.org/Graphics/SVG/1.1/DTD/svg11.dtd">
<svg width="100%" height="100%" viewBox="0 0 20 20" version="1.1" xmlns="http://www.w3.org/2000/svg" xmlns:xlink="http://www.w3.org/1999/xlink" xml:space="preserve" xmlns:serif="http://www.serif.com/" style="fill-rule:evenodd;clip-rule:evenodd;stroke-linecap:round;stroke-linejoin:round;">
    <g transform="matrix(1,0,0,1,-2,-2)">
        <path d="M18,13L18,19C18,20.097 17.097,21 16,21L5,21C3.903,21 3,20.097 3,19L3,8C3,6.903 3.903,6 5,6L11,6" style="fill:none;stroke:url(#_Linear1);stroke-width:2px;"/>
    </g>
    <g transform="matrix(1,0,0,1,-2,-2)">
        <path d="M15,3L21,3L21,9" style="fill:none;stroke:url(#_Linear2);stroke-width:2px;"/>
    </g>
    <g transform="matrix(1,0,0,1,-2,-2)">
        <path d="M10,14L21,3" style="fill:none;stroke:url(#_Linear3);stroke-width:2px;"/>
    </g>
    <defs>
        <linearGradient id="_Linear1" x1="0" y1="0" x2="1" y2="0" gradientUnits="userSpaceOnUse" gradientTransform="matrix(20,-20,20,20,2,22)"><stop offset="0" style="stop-color:rgb(63,157,213);stop-opacity:1"/><stop offset="1" style="stop-color:rgb(0,211,194);stop-opacity:1"/></linearGradient>
        <linearGradient id="_Linear2" x1="0" y1="0" x2="1" y2="0" gradientUnits="userSpaceOnUse" gradientTransform="matrix(20,-20,20,20,2,22)"><stop offset="0" style="stop-color:rgb(63,157,213);stop-opacity:1"/><stop offset="1" style="stop-color:rgb(0,211,194);stop-opacity:1"/></linearGradient>
        <linearGradient id="_Linear3" x1="0" y1="0" x2="1" y2="0" gradientUnits="userSpaceOnUse" gradientTransform="matrix(20,-20,20,20,2,22)"><stop offset="0" style="stop-color:rgb(63,157,213);stop-opacity:1"/><stop offset="1" style="stop-color:rgb(0,211,194);stop-opacity:1"/></linearGradient>
    </defs>
</svg>
