<?xml version="1.0" encoding="UTF-8" standalone="no"?>
<!DOCTYPE svg PUBLIC "-//W3C//DTD SVG 1.1//EN" "http://www.w3.org/Graphics/SVG/1.1/DTD/svg11.dtd">
<svg width="100%" height="100%" viewBox="0 0 22 22" version="1.1" xmlns="http://www.w3.org/2000/svg" xmlns:xlink="http://www.w3.org/1999/xlink" xml:space="preserve" xmlns:serif="http://www.serif.com/" style="fill-rule:evenodd;clip-rule:evenodd;stroke-linecap:round;stroke-linejoin:round;">
    <g transform="matrix(1,0,0,1,-1,-1)">
        <path d="M20,12L20,22L4,22L4,12" style="fill:none;stroke:url(#_Linear1);stroke-width:2px;"/>
    </g>
    <g transform="matrix(1,0,0,1,-1,-1)">
        <rect x="2" y="7" width="20" height="5" style="fill:none;stroke:url(#_Linear2);stroke-width:2px;"/>
    </g>
    <g transform="matrix(1,0,0,1,-1,-1)">
        <path d="M12,22L12,7" style="fill:none;stroke:url(#_Linear3);stroke-width:2px;"/>
    </g>
    <g transform="matrix(1,0,0,1,-1,-1)">
        <path d="M12,7L7.5,7C6.129,7 5,5.871 5,4.5C5,3.129 6.129,2 7.5,2C11,2 12,7 12,7Z" style="fill:none;stroke:url(#_Linear4);stroke-width:2px;"/>
    </g>
    <g transform="matrix(1,0,0,1,-1,-1)">
        <path d="M12,7L16.5,7C17.871,7 19,5.871 19,4.5C19,3.129 17.871,2 16.5,2C13,2 12,7 12,7Z" style="fill:none;stroke:url(#_Linear5);stroke-width:2px;"/>
    </g>
    <defs>
        <linearGradient id="_Linear1" x1="0" y1="0" x2="1" y2="0" gradientUnits="userSpaceOnUse" gradientTransform="matrix(22,-22,22,22,1,23)"><stop offset="0" style="stop-color:rgb(63,157,213);stop-opacity:1"/><stop offset="1" style="stop-color:rgb(0,211,194);stop-opacity:1"/></linearGradient>
        <linearGradient id="_Linear2" x1="0" y1="0" x2="1" y2="0" gradientUnits="userSpaceOnUse" gradientTransform="matrix(22,-22,22,22,1,23)"><stop offset="0" style="stop-color:rgb(63,157,213);stop-opacity:1"/><stop offset="1" style="stop-color:rgb(0,211,194);stop-opacity:1"/></linearGradient>
        <linearGradient id="_Linear3" x1="0" y1="0" x2="1" y2="0" gradientUnits="userSpaceOnUse" gradientTransform="matrix(22,-22,22,22,1,23)"><stop offset="0" style="stop-color:rgb(63,157,213);stop-opacity:1"/><stop offset="1" style="stop-color:rgb(0,211,194);stop-opacity:1"/></linearGradient>
        <linearGradient id="_Linear4" x1="0" y1="0" x2="1" y2="0" gradientUnits="userSpaceOnUse" gradientTransform="matrix(22,-22,22,22,1,23)"><stop offset="0" style="stop-color:rgb(63,157,213);stop-opacity:1"/><stop offset="1" style="stop-color:rgb(0,211,194);stop-opacity:1"/></linearGradient>
        <linearGradient id="_Linear5" x1="0" y1="0" x2="1" y2="0" gradientUnits="userSpaceOnUse" gradientTransform="matrix(22,-22,22,22,1,23)"><stop offset="0" style="stop-color:rgb(63,157,213);stop-opacity:1"/><stop offset="1" style="stop-color:rgb(0,211,194);stop-opacity:1"/></linearGradient>
    </defs>
</svg>
