<svg clip-rule="evenodd" fill-rule="evenodd" stroke-linejoin="round" stroke-miterlimit="2" viewBox="0 0 16 16" xmlns="http://www.w3.org/2000/svg"><path d="m18 10c0 4.389-3.611 8-8 8s-8-3.611-8-8 3.611-8 8-8 8 3.611 8 8zm-8-3c-.357 0-.688.191-.867.5-.174.324-.513.526-.881.526-.548 0-1-.451-1-1 0-.186.052-.368.15-.526.535-.927 1.528-1.5 2.598-1.5 1.646 0 3 1.354 3 3 0 1.269-.804 2.407-2 2.83v.17c0 .549-.451 1-1 1s-1-.451-1-1v-1c0-.549.451-1 1-1s1-.451 1-1-.451-1-1-1zm0 8c.549 0 1-.451 1-1s-.451-1-1-1-1 .451-1 1 .451 1 1 1z" fill="#b2bbc7" transform="translate(-2 -2)"/></svg>