<svg clip-rule="evenodd" fill-rule="evenodd" stroke-linejoin="round" stroke-miterlimit="2" viewBox="0 0 44 44" xmlns="http://www.w3.org/2000/svg" xmlns:xlink="http://www.w3.org/1999/xlink"><linearGradient id="a"><stop offset="0" stop-color="#3f9dd5"/><stop offset="1" stop-color="#00d3c2"/></linearGradient><linearGradient id="b" gradientTransform="matrix(48 -48 48 48 0 48)" gradientUnits="userSpaceOnUse" x1="0" x2="1" xlink:href="#a" y1="0" y2="0"/><linearGradient id="c" gradientTransform="matrix(48 -48 48 48 .5 48)" gradientUnits="userSpaceOnUse" x1="0" x2="1" xlink:href="#a" y1="0" y2="0"/><g fill-rule="nonzero" transform="translate(-2 -2)"><path d="m23.7 31c-2.8 0-4.1-1.8-4.6-2.4l-.1-.2c-.4-.4-.3-1.1.1-1.5s1.1-.3 1.4.1l.1.1c.4.5 1.2 1.5 3.1 1.5 1 0 1.8-.8 2-1.8.2-1.4-1-2.6-3.2-3.4-2.7-.9-3.3-3.2-3-4.8.3-2 2.1-3.7 4.2-3.7 2.7 0 3.9 2.5 3.9 2.6.2.5 0 1.2-.5 1.4s-1.1-.1-1.3-.6c0-.1-.7-1.4-2.1-1.4-1.2 0-2 1.1-2.2 2-.2 1.1.5 2 1.7 2.5 4.8 1.7 4.7 4.9 4.6 5.8-.4 2.1-2.1 3.8-4.1 3.8z" fill="url(#b)"/><path d="m24 33c-.6 0-1-.4-1-1v-18c0-.6.4-1 1-1s1 .4 1 1v18c0 .6-.4 1-1 1z" fill="url(#c)" transform="translate(-.5)"/><path d="m24 46c-12.1 0-22-9.9-22-22s9.9-22 22-22 22 9.9 22 22c0 1.1-.1 2.3-.3 3.7-.1.5-.6.9-1.2.8-.5-.1-.9-.6-.8-1.2.2-1.2.3-2.3.3-3.3 0-11-9-20-20-20s-20 9-20 20 9 20 20 20c1 0 2.1-.1 3.3-.3.6-.1 1.1.3 1.2.8s-.3 1.1-.8 1.2c-1.4.2-2.6.3-3.7.3zm13.526-14.874c.148.081.267.2.348.348l4.826 4.826c.4.4.4 1 0 1.4-.2.2-.4.3-.7.3s-.5-.1-.7-.3l-3.3-3.3v9.6c0 .6-.4 1-1 1s-1-.4-1-1v-9.6l-3.3 3.3c-.4.4-1 .4-1.4 0s-.4-1 0-1.4l4.826-4.826c.081-.148.2-.267.348-.348l.526-.526zm-13.526 10.474c-9.7 0-17.6-7.9-17.6-17.6s7.9-17.6 17.6-17.6 17.6 7.9 17.6 17.6c0 .6-.4 1-1 1s-1-.4-1-1c0-8.6-7-15.6-15.6-15.6s-15.6 7-15.6 15.6 7 15.6 15.6 15.6c.6 0 1 .4 1 1s-.4 1-1 1z" fill="url(#b)"/></g></svg>