<svg clip-rule="evenodd" fill-rule="evenodd" stroke-linejoin="round" stroke-miterlimit="2" viewBox="0 0 46 47" xmlns="http://www.w3.org/2000/svg" xmlns:xlink="http://www.w3.org/1999/xlink"><linearGradient id="a" gradientTransform="matrix(46 -47 47 46 0 47)" gradientUnits="userSpaceOnUse" x1="0" x2="1" y1="0" y2="0"><stop offset="0" stop-color="#9d4df1"/><stop offset="1" stop-color="#00d3c2"/></linearGradient><path d="m28.615 15.971 8.215-8.215c-.524-.791-.83-1.738-.83-2.756 0-2.757 2.243-5 5-5s5 2.243 5 5-2.243 5-5 5c-1.018 0-1.965-.306-2.756-.83l-8.215 8.215c1.233 1.54 1.971 3.493 1.971 5.615 0 2.135-.747 4.099-1.995 5.644l4.44 5.328c1.042-.617 2.258-.972 3.555-.972 3.859 0 7 3.14 7 7s-3.141 7-7 7-7-3.14-7-7c0-1.844.716-3.523 1.886-4.774l-4.307-5.168c-1.535 1.215-3.474 1.942-5.579 1.942-2.122 0-4.075-.738-5.615-1.971l-5.307 5.307c.269.495.422 1.062.422 1.664 0 1.93-1.57 3.5-3.5 3.5s-3.5-1.57-3.5-3.5 1.57-3.5 3.5-3.5c.602 0 1.169.153 1.664.422l5.307-5.307c-1.233-1.54-1.971-3.493-1.971-5.615 0-1.576.407-3.06 1.123-4.35l-6.206-3.546c-.916 1.154-2.332 1.896-3.917 1.896-2.757 0-5-2.243-5-5s2.243-5 5-5 5 2.243 5 5c0 .456-.061.898-.177 1.319l6.463 3.693c1.65-1.847 4.048-3.012 6.714-3.012 2.122 0 4.075.738 5.615 1.971zm9.385 19.029c-2.757 0-5 2.243-5 5s2.243 5 5 5 5-2.243 5-5-2.243-5-5-5zm-29 .5c-.827 0-1.5.673-1.5 1.5s.673 1.5 1.5 1.5 1.5-.673 1.5-1.5-.673-1.5-1.5-1.5zm14-19.5c-3.859 0-7 3.14-7 7s3.141 7 7 7 7-3.14 7-7-3.141-7-7-7zm-18-7c-1.654 0-3 1.346-3 3s1.346 3 3 3 3-1.346 3-3-1.346-3-3-3zm36-7c-1.654 0-3 1.346-3 3s1.346 3 3 3 3-1.346 3-3-1.346-3-3-3z" fill="url(#a)" fill-rule="nonzero"/></svg>