<?xml version="1.0" encoding="UTF-8" standalone="no"?>
<!DOCTYPE svg PUBLIC "-//W3C//DTD SVG 1.1//EN" "http://www.w3.org/Graphics/SVG/1.1/DTD/svg11.dtd">
<svg width="100%" height="100%" viewBox="0 0 24 20" version="1.1" xmlns="http://www.w3.org/2000/svg" xmlns:xlink="http://www.w3.org/1999/xlink" xml:space="preserve" xmlns:serif="http://www.serif.com/" style="fill-rule:evenodd;clip-rule:evenodd;stroke-linecap:round;stroke-linejoin:round;">
    <g transform="matrix(1,0,0,1,0,-2)">
        <path d="M17,21L17,19C17,16.806 15.194,15 13,15L5,15C2.806,15 1,16.806 1,19L1,21" style="fill:none;fill-rule:nonzero;stroke:rgb(122,130,148);stroke-width:2px;"/>
    </g>
    <g transform="matrix(1,0,0,1,0,-2)">
        <circle cx="9" cy="7" r="4" style="fill:none;stroke:rgb(122,130,148);stroke-width:2px;"/>
    </g>
    <g transform="matrix(1,0,0,1,0,-2)">
        <path d="M23,21L23,19C22.999,17.183 21.759,15.584 20,15.13" style="fill:none;fill-rule:nonzero;stroke:rgb(122,130,148);stroke-width:2px;"/>
    </g>
    <g transform="matrix(1,0,0,1,0,-2)">
        <path d="M16,3.13C17.764,3.582 19.008,5.184 19.008,7.005C19.008,8.826 17.764,10.428 16,10.88" style="fill:none;fill-rule:nonzero;stroke:rgb(122,130,148);stroke-width:2px;"/>
    </g>
</svg>
